{
	"patcher" : 	{
		"fileversion" : 1,
		"appversion" : 		{
			"major" : 8,
			"minor" : 5,
			"revision" : 3,
			"architecture" : "x64",
			"modernui" : 1
		}
,
		"classnamespace" : "box",
		"rect" : [ 34.0, 85.0, 1452.0, 929.0 ],
		"bglocked" : 0,
		"openinpresentation" : 0,
		"default_fontsize" : 12.0,
		"default_fontface" : 0,
		"default_fontname" : "Arial",
		"gridonopen" : 1,
		"gridsize" : [ 15.0, 15.0 ],
		"gridsnaponopen" : 1,
		"objectsnaponopen" : 1,
		"statusbarvisible" : 2,
		"toolbarvisible" : 1,
		"lefttoolbarpinned" : 0,
		"toptoolbarpinned" : 0,
		"righttoolbarpinned" : 0,
		"bottomtoolbarpinned" : 0,
		"toolbars_unpinned_last_save" : 0,
		"tallnewobj" : 0,
		"boxanimatetime" : 200,
		"enablehscroll" : 1,
		"enablevscroll" : 1,
		"devicewidth" : 0.0,
		"description" : "",
		"digest" : "",
		"tags" : "",
		"style" : "",
		"subpatcher_template" : "",
		"assistshowspatchername" : 0,
		"boxes" : [ 			{
				"box" : 				{
					"id" : "obj-163",
					"maxclass" : "newobj",
					"numinlets" : 3,
					"numoutlets" : 1,
					"outlettype" : [ "" ],
					"patching_rect" : [ 1059.0, 581.0, 40.0, 22.0 ],
					"text" : "clip"
				}

			}
, 			{
				"box" : 				{
					"id" : "obj-162",
					"linecount" : 2,
					"maxclass" : "comment",
					"numinlets" : 1,
					"numoutlets" : 0,
					"patching_rect" : [ 286.5, 172.0, 150.0, 34.0 ],
					"text" : "perform for 5 style changes"
				}

			}
, 			{
				"box" : 				{
					"id" : "obj-160",
					"maxclass" : "message",
					"numinlets" : 2,
					"numoutlets" : 1,
					"outlettype" : [ "" ],
					"patching_rect" : [ 244.0, 184.0, 35.0, 22.0 ],
					"text" : "clear"
				}

			}
, 			{
				"box" : 				{
					"id" : "obj-158",
					"maxclass" : "newobj",
					"numinlets" : 3,
					"numoutlets" : 2,
					"outlettype" : [ "", "bang" ],
					"patching_rect" : [ 90.583333333333314, 625.0, 51.0, 22.0 ],
					"text" : "line 100"
				}

			}
, 			{
				"box" : 				{
					"id" : "obj-157",
					"maxclass" : "message",
					"numinlets" : 2,
					"numoutlets" : 1,
					"outlettype" : [ "" ],
					"patching_rect" : [ 1383.0, 132.0, 29.5, 22.0 ],
					"text" : "1"
				}

			}
, 			{
				"box" : 				{
					"id" : "obj-155",
					"maxclass" : "newobj",
					"numinlets" : 6,
					"numoutlets" : 1,
					"outlettype" : [ "" ],
					"patching_rect" : [ 90.583333333333314, 662.0, 97.0, 22.0 ],
					"text" : "scale 0. 1. 5. 50."
				}

			}
, 			{
				"box" : 				{
					"id" : "obj-154",
					"maxclass" : "newobj",
					"numinlets" : 6,
					"numoutlets" : 1,
					"outlettype" : [ "" ],
					"patching_rect" : [ 1269.5, 497.0, 97.0, 22.0 ],
					"text" : "scale 0. 1. 15 90"
				}

			}
, 			{
				"box" : 				{
					"id" : "obj-153",
					"maxclass" : "newobj",
					"numinlets" : 6,
					"numoutlets" : 1,
					"outlettype" : [ "" ],
					"patching_rect" : [ 859.0, 486.0, 110.0, 22.0 ],
					"text" : "scale 0. 1. 50 5000"
				}

			}
, 			{
				"box" : 				{
					"id" : "obj-152",
					"maxclass" : "toggle",
					"numinlets" : 1,
					"numoutlets" : 1,
					"outlettype" : [ "int" ],
					"parameter_enable" : 0,
					"patching_rect" : [ 335.0, 68.0, 24.0, 24.0 ]
				}

			}
, 			{
				"box" : 				{
					"id" : "obj-150",
					"maxclass" : "newobj",
					"numinlets" : 2,
					"numoutlets" : 1,
					"outlettype" : [ "bang" ],
					"patching_rect" : [ 335.0, 104.0, 83.0, 22.0 ],
					"text" : "metro 140000"
				}

			}
, 			{
				"box" : 				{
					"id" : "obj-143",
					"maxclass" : "newobj",
					"numinlets" : 2,
					"numoutlets" : 1,
					"outlettype" : [ "int" ],
					"patching_rect" : [ 150.0, 96.0, 33.0, 22.0 ],
					"text" : "== 0"
				}

			}
, 			{
				"box" : 				{
					"id" : "obj-138",
					"maxclass" : "newobj",
					"numinlets" : 2,
					"numoutlets" : 2,
					"outlettype" : [ "signal", "bang" ],
					"patching_rect" : [ 206.999999999999972, 305.0, 64.0, 22.0 ],
					"text" : "line~ 1000"
				}

			}
, 			{
				"box" : 				{
					"id" : "obj-135",
					"maxclass" : "button",
					"numinlets" : 1,
					"numoutlets" : 1,
					"outlettype" : [ "bang" ],
					"parameter_enable" : 0,
					"patching_rect" : [ 150.0, 142.0, 24.0, 24.0 ]
				}

			}
, 			{
				"box" : 				{
					"id" : "obj-133",
					"maxclass" : "number",
					"numinlets" : 1,
					"numoutlets" : 2,
					"outlettype" : [ "", "bang" ],
					"parameter_enable" : 0,
					"patching_rect" : [ 150.0, 235.0, 50.0, 22.0 ]
				}

			}
, 			{
				"box" : 				{
					"id" : "obj-129",
					"maxclass" : "newobj",
					"numinlets" : 2,
					"numoutlets" : 2,
					"outlettype" : [ "int", "bang" ],
					"patching_rect" : [ 150.0, 184.0, 36.0, 22.0 ],
					"text" : "urn 3"
				}

			}
, 			{
				"box" : 				{
					"id" : "obj-128",
					"maxclass" : "newobj",
					"numinlets" : 2,
					"numoutlets" : 2,
					"outlettype" : [ "signal", "bang" ],
					"patching_rect" : [ 390.5, 307.0, 64.0, 22.0 ],
					"text" : "line~ 1000"
				}

			}
, 			{
				"box" : 				{
					"id" : "obj-127",
					"maxclass" : "newobj",
					"numinlets" : 2,
					"numoutlets" : 2,
					"outlettype" : [ "signal", "signal" ],
					"patching_rect" : [ 206.999999999999972, 235.0, 59.0, 22.0 ],
					"text" : "gate~ 2 1"
				}

			}
, 			{
				"box" : 				{
					"id" : "obj-125",
					"maxclass" : "newobj",
					"numinlets" : 2,
					"numoutlets" : 1,
					"outlettype" : [ "float" ],
					"patching_rect" : [ 1062.5, 453.0, 81.0, 22.0 ],
					"text" : "snapshot~ 10"
				}

			}
, 			{
				"box" : 				{
					"id" : "obj-122",
					"maxclass" : "message",
					"numinlets" : 2,
					"numoutlets" : 1,
					"outlettype" : [ "" ],
					"patching_rect" : [ 534.5, 739.0, 29.5, 22.0 ],
					"text" : "50"
				}

			}
, 			{
				"box" : 				{
					"id" : "obj-120",
					"maxclass" : "message",
					"numinlets" : 2,
					"numoutlets" : 1,
					"outlettype" : [ "" ],
					"patching_rect" : [ 505.0, 739.0, 29.5, 22.0 ],
					"text" : "25"
				}

			}
, 			{
				"box" : 				{
					"id" : "obj-118",
					"maxclass" : "newobj",
					"numinlets" : 6,
					"numoutlets" : 1,
					"outlettype" : [ "" ],
					"patching_rect" : [ 449.0, 563.0, 90.0, 22.0 ],
					"text" : "scale 0. 1. 1 10"
				}

			}
, 			{
				"box" : 				{
					"id" : "obj-117",
					"maxclass" : "newobj",
					"numinlets" : 6,
					"numoutlets" : 1,
					"outlettype" : [ "" ],
					"patching_rect" : [ 449.0, 510.0, 90.0, 22.0 ],
					"text" : "scale 0. 1. 1 10"
				}

			}
, 			{
				"box" : 				{
					"id" : "obj-115",
					"maxclass" : "newobj",
					"numinlets" : 2,
					"numoutlets" : 1,
					"outlettype" : [ "signal" ],
					"patching_rect" : [ 475.5, 816.0, 40.0, 22.0 ],
					"text" : "*~ 0.5"
				}

			}
, 			{
				"box" : 				{
					"id" : "obj-110",
					"maxclass" : "newobj",
					"numinlets" : 3,
					"numoutlets" : 2,
					"outlettype" : [ "", "bang" ],
					"patching_rect" : [ 417.5, 477.0, 44.0, 22.0 ],
					"text" : "line 10"
				}

			}
, 			{
				"box" : 				{
					"id" : "obj-109",
					"maxclass" : "newobj",
					"numinlets" : 2,
					"numoutlets" : 1,
					"outlettype" : [ "signal" ],
					"patching_rect" : [ 417.5, 625.0, 43.0, 22.0 ],
					"text" : "cycle~"
				}

			}
, 			{
				"box" : 				{
					"id" : "obj-108",
					"maxclass" : "newobj",
					"numinlets" : 2,
					"numoutlets" : 1,
					"outlettype" : [ "int" ],
					"patching_rect" : [ 417.5, 594.0, 29.5, 22.0 ],
					"text" : "/ 5"
				}

			}
, 			{
				"box" : 				{
					"id" : "obj-107",
					"maxclass" : "newobj",
					"numinlets" : 2,
					"numoutlets" : 1,
					"outlettype" : [ "int" ],
					"patching_rect" : [ 417.5, 534.0, 29.5, 22.0 ],
					"text" : "* 3"
				}

			}
, 			{
				"box" : 				{
					"id" : "obj-69",
					"maxclass" : "message",
					"numinlets" : 2,
					"numoutlets" : 1,
					"outlettype" : [ "" ],
					"patching_rect" : [ 456.0, 662.0, 29.5, 22.0 ],
					"text" : "25"
				}

			}
, 			{
				"box" : 				{
					"id" : "obj-87",
					"maxclass" : "newobj",
					"numinlets" : 2,
					"numoutlets" : 1,
					"outlettype" : [ "signal" ],
					"patching_rect" : [ 417.5, 662.0, 29.5, 22.0 ],
					"text" : "*~"
				}

			}
, 			{
				"box" : 				{
					"id" : "obj-89",
					"maxclass" : "newobj",
					"numinlets" : 4,
					"numoutlets" : 2,
					"outlettype" : [ "signal", "signal" ],
					"patching_rect" : [ 417.5, 717.0, 77.0, 22.0 ],
					"text" : "CNET.reverb"
				}

			}
, 			{
				"box" : 				{
					"id" : "obj-90",
					"maxclass" : "newobj",
					"numinlets" : 5,
					"numoutlets" : 1,
					"outlettype" : [ "signal" ],
					"patching_rect" : [ 475.5, 777.0, 137.0, 22.0 ],
					"text" : "CNET.feedbackDelay"
				}

			}
, 			{
				"box" : 				{
					"id" : "obj-68",
					"maxclass" : "message",
					"numinlets" : 2,
					"numoutlets" : 1,
					"outlettype" : [ "" ],
					"patching_rect" : [ 1344.0, 132.0, 29.5, 22.0 ],
					"text" : "127"
				}

			}
, 			{
				"box" : 				{
					"id" : "obj-66",
					"maxclass" : "newobj",
					"numinlets" : 2,
					"numoutlets" : 1,
					"outlettype" : [ "float" ],
					"patching_rect" : [ 1269.5, 460.0, 81.0, 22.0 ],
					"text" : "snapshot~ 10"
				}

			}
, 			{
				"box" : 				{
					"id" : "obj-64",
					"maxclass" : "newobj",
					"numinlets" : 2,
					"numoutlets" : 1,
					"outlettype" : [ "float" ],
					"patching_rect" : [ 859.0, 453.0, 81.0, 22.0 ],
					"text" : "snapshot~ 10"
				}

			}
, 			{
				"box" : 				{
					"id" : "obj-62",
					"maxclass" : "message",
					"numinlets" : 2,
					"numoutlets" : 1,
					"outlettype" : [ "" ],
					"patching_rect" : [ 1265.0, 132.0, 29.5, 22.0 ],
					"text" : "100"
				}

			}
, 			{
				"box" : 				{
					"id" : "obj-60",
					"maxclass" : "newobj",
					"numinlets" : 1,
					"numoutlets" : 1,
					"outlettype" : [ "bang" ],
					"patching_rect" : [ 1300.0, 32.0, 58.0, 22.0 ],
					"text" : "loadbang"
				}

			}
, 			{
				"box" : 				{
					"id" : "obj-59",
					"maxclass" : "message",
					"numinlets" : 2,
					"numoutlets" : 1,
					"outlettype" : [ "" ],
					"patching_rect" : [ 1300.0, 132.0, 35.0, 22.0 ],
					"text" : "1000"
				}

			}
, 			{
				"box" : 				{
					"id" : "obj-57",
					"maxclass" : "message",
					"numinlets" : 2,
					"numoutlets" : 1,
					"outlettype" : [ "" ],
					"patching_rect" : [ 224.833333333333314, 458.0, 29.5, 22.0 ],
					"text" : "15"
				}

			}
, 			{
				"box" : 				{
					"id" : "obj-50",
					"maxclass" : "message",
					"numinlets" : 2,
					"numoutlets" : 1,
					"outlettype" : [ "" ],
					"patching_rect" : [ 224.833333333333314, 639.0, 29.5, 22.0 ],
					"text" : "45"
				}

			}
, 			{
				"box" : 				{
					"id" : "obj-41",
					"maxclass" : "newobj",
					"numinlets" : 1,
					"numoutlets" : 1,
					"outlettype" : [ "int" ],
					"patching_rect" : [ 1269.5, 371.0, 28.0, 22.0 ],
					"text" : "abs"
				}

			}
, 			{
				"box" : 				{
					"id" : "obj-39",
					"maxclass" : "newobj",
					"numinlets" : 1,
					"numoutlets" : 1,
					"outlettype" : [ "int" ],
					"patching_rect" : [ 1062.5, 371.0, 28.0, 22.0 ],
					"text" : "abs"
				}

			}
, 			{
				"box" : 				{
					"id" : "obj-37",
					"maxclass" : "newobj",
					"numinlets" : 1,
					"numoutlets" : 1,
					"outlettype" : [ "int" ],
					"patching_rect" : [ 859.0, 371.0, 28.0, 22.0 ],
					"text" : "abs"
				}

			}
, 			{
				"box" : 				{
					"id" : "obj-36",
					"maxclass" : "newobj",
					"numinlets" : 1,
					"numoutlets" : 1,
					"outlettype" : [ "int" ],
					"patching_rect" : [ 664.0, 371.0, 28.0, 22.0 ],
					"text" : "abs"
				}

			}
, 			{
				"box" : 				{
					"id" : "obj-33",
					"maxclass" : "newobj",
					"numinlets" : 3,
					"numoutlets" : 1,
					"outlettype" : [ "signal" ],
					"patching_rect" : [ 1269.5, 414.0, 208.0, 22.0 ],
					"text" : "slide~ samplerate*0.5 samplerate*0.5"
				}

			}
, 			{
				"box" : 				{
					"id" : "obj-32",
					"maxclass" : "newobj",
					"numinlets" : 3,
					"numoutlets" : 1,
					"outlettype" : [ "signal" ],
					"patching_rect" : [ 1062.5, 414.0, 177.0, 22.0 ],
					"text" : "slide~ samplerate*5 samplerate"
				}

			}
, 			{
				"box" : 				{
					"id" : "obj-31",
					"maxclass" : "newobj",
					"numinlets" : 3,
					"numoutlets" : 1,
					"outlettype" : [ "signal" ],
					"patching_rect" : [ 859.0, 414.0, 177.0, 22.0 ],
					"text" : "slide~ samplerate samplerate*5"
				}

			}
, 			{
				"box" : 				{
					"id" : "obj-26",
					"maxclass" : "newobj",
					"numinlets" : 3,
					"numoutlets" : 1,
					"outlettype" : [ "signal" ],
					"patching_rect" : [ 664.0, 407.0, 177.0, 22.0 ],
					"text" : "slide~ samplerate samplerate*5"
				}

			}
, 			{
				"box" : 				{
					"id" : "obj-23",
					"maxclass" : "newobj",
					"numinlets" : 2,
					"numoutlets" : 1,
					"outlettype" : [ "signal" ],
					"patching_rect" : [ 205.499999999999972, 428.0, 29.5, 22.0 ],
					"text" : "*~"
				}

			}
, 			{
				"box" : 				{
					"id" : "obj-8",
					"maxclass" : "newobj",
					"numinlets" : 4,
					"numoutlets" : 2,
					"outlettype" : [ "signal", "signal" ],
					"patching_rect" : [ 71.249999999999986, 717.0, 77.0, 22.0 ],
					"text" : "CNET.reverb"
				}

			}
, 			{
				"box" : 				{
					"id" : "obj-2",
					"maxclass" : "newobj",
					"numinlets" : 4,
					"numoutlets" : 2,
					"outlettype" : [ "signal", "signal" ],
					"patching_rect" : [ 205.499999999999972, 500.0, 77.0, 22.0 ],
					"text" : "CNET.reverb"
				}

			}
, 			{
				"box" : 				{
					"bgcolor" : [ 1.0, 0.0, 0.0, 1.0 ],
					"id" : "obj-98",
					"maxclass" : "button",
					"numinlets" : 1,
					"numoutlets" : 1,
					"outlettype" : [ "bang" ],
					"parameter_enable" : 0,
					"patching_rect" : [ 639.100000000000023, 149.0, 54.0, 54.0 ]
				}

			}
, 			{
				"box" : 				{
					"id" : "obj-96",
					"linecount" : 2,
					"maxclass" : "message",
					"numinlets" : 2,
					"numoutlets" : 1,
					"outlettype" : [ "" ],
					"patching_rect" : [ 639.100000000000023, 221.0, 54.0, 36.0 ],
					"text" : ";\r\ndsp stop"
				}

			}
, 			{
				"box" : 				{
					"id" : "obj-94",
					"maxclass" : "newobj",
					"numinlets" : 3,
					"numoutlets" : 1,
					"outlettype" : [ "signal" ],
					"patching_rect" : [ 268.5, 828.0, 72.0, 22.0 ],
					"text" : "lores~ 2000"
				}

			}
, 			{
				"box" : 				{
					"id" : "obj-93",
					"maxclass" : "newobj",
					"numinlets" : 3,
					"numoutlets" : 1,
					"outlettype" : [ "signal" ],
					"patching_rect" : [ 342.5, 828.0, 72.0, 22.0 ],
					"text" : "lores~ 2000"
				}

			}
, 			{
				"box" : 				{
					"id" : "obj-88",
					"maxclass" : "newobj",
					"numinlets" : 5,
					"numoutlets" : 1,
					"outlettype" : [ "signal" ],
					"patching_rect" : [ 205.499999999999972, 563.0, 123.0, 22.0 ],
					"text" : "CNET.feedbackDelay"
				}

			}
, 			{
				"box" : 				{
					"id" : "obj-53",
					"maxclass" : "newobj",
					"numinlets" : 2,
					"numoutlets" : 5,
					"outlettype" : [ "signal", "signal", "signal", "signal", "" ],
					"patching_rect" : [ 322.5, 777.0, 99.0, 22.0 ],
					"text" : "emdm.ANG~",
					"varname" : "emdm.ANG~[1]"
				}

			}
, 			{
				"box" : 				{
					"id" : "obj-47",
					"maxclass" : "button",
					"numinlets" : 1,
					"numoutlets" : 1,
					"outlettype" : [ "bang" ],
					"parameter_enable" : 0,
					"patching_rect" : [ 696.0, 56.0, 24.0, 24.0 ]
				}

			}
, 			{
				"box" : 				{
					"id" : "obj-43",
					"maxclass" : "newobj",
					"numinlets" : 1,
					"numoutlets" : 0,
					"patching_rect" : [ 712.0, 184.0, 32.0, 22.0 ],
					"text" : "print"
				}

			}
, 			{
				"box" : 				{
					"id" : "obj-40",
					"maxclass" : "button",
					"numinlets" : 1,
					"numoutlets" : 1,
					"outlettype" : [ "bang" ],
					"parameter_enable" : 0,
					"patching_rect" : [ 536.0, 39.0, 24.0, 24.0 ]
				}

			}
, 			{
				"box" : 				{
					"id" : "obj-38",
					"maxclass" : "message",
					"numinlets" : 2,
					"numoutlets" : 1,
					"outlettype" : [ "" ],
					"patching_rect" : [ 536.0, 72.0, 50.0, 22.0 ]
				}

			}
, 			{
				"box" : 				{
					"id" : "obj-34",
					"maxclass" : "toggle",
					"numinlets" : 1,
					"numoutlets" : 1,
					"outlettype" : [ "int" ],
					"parameter_enable" : 0,
					"patching_rect" : [ 664.0, 56.0, 24.0, 24.0 ]
				}

			}
, 			{
				"box" : 				{
					"id" : "obj-27",
					"maxclass" : "button",
					"numinlets" : 1,
					"numoutlets" : 1,
					"outlettype" : [ "bang" ],
					"parameter_enable" : 0,
					"patching_rect" : [ 629.5, 45.0, 24.0, 24.0 ]
				}

			}
, 			{
				"box" : 				{
					"id" : "obj-25",
					"maxclass" : "button",
					"numinlets" : 1,
					"numoutlets" : 1,
					"outlettype" : [ "bang" ],
					"parameter_enable" : 0,
					"patching_rect" : [ 596.0, 39.0, 24.0, 24.0 ]
				}

			}
, 			{
				"box" : 				{
					"id" : "obj-21",
					"maxclass" : "button",
					"numinlets" : 1,
					"numoutlets" : 1,
					"outlettype" : [ "bang" ],
					"parameter_enable" : 0,
					"patching_rect" : [ 498.0, 60.0, 24.0, 24.0 ]
				}

			}
, 			{
				"box" : 				{
					"id" : "obj-17",
					"maxclass" : "button",
					"numinlets" : 1,
					"numoutlets" : 1,
					"outlettype" : [ "bang" ],
					"parameter_enable" : 0,
					"patching_rect" : [ 469.0, 60.0, 24.0, 24.0 ]
				}

			}
, 			{
				"box" : 				{
					"id" : "obj-7",
					"maxclass" : "newobj",
					"numinlets" : 8,
					"numoutlets" : 11,
					"outlettype" : [ "", "", "", "", "", "", "", "", "", "", "" ],
					"patching_rect" : [ 469.0, 104.0, 262.0, 22.0 ],
					"text" : "CNET.receive"
				}

			}
, 			{
				"box" : 				{
					"id" : "obj-28",
					"maxclass" : "newobj",
					"numinlets" : 1,
					"numoutlets" : 2,
					"outlettype" : [ "", "" ],
					"patcher" : 					{
						"fileversion" : 1,
						"appversion" : 						{
							"major" : 8,
							"minor" : 5,
							"revision" : 3,
							"architecture" : "x64",
							"modernui" : 1
						}
,
						"classnamespace" : "box",
						"rect" : [ 633.0, 170.0, 640.0, 480.0 ],
						"bglocked" : 0,
						"openinpresentation" : 0,
						"default_fontsize" : 12.0,
						"default_fontface" : 0,
						"default_fontname" : "Arial",
						"gridonopen" : 1,
						"gridsize" : [ 15.0, 15.0 ],
						"gridsnaponopen" : 1,
						"objectsnaponopen" : 1,
						"statusbarvisible" : 2,
						"toolbarvisible" : 1,
						"lefttoolbarpinned" : 0,
						"toptoolbarpinned" : 0,
						"righttoolbarpinned" : 0,
						"bottomtoolbarpinned" : 0,
						"toolbars_unpinned_last_save" : 0,
						"tallnewobj" : 0,
						"boxanimatetime" : 200,
						"enablehscroll" : 1,
						"enablevscroll" : 1,
						"devicewidth" : 0.0,
						"description" : "",
						"digest" : "",
						"tags" : "",
						"style" : "",
						"subpatcher_template" : "",
						"assistshowspatchername" : 0,
						"boxes" : [ 							{
								"box" : 								{
									"comment" : "Frequency (Hz)",
									"id" : "obj-7",
									"index" : 2,
									"maxclass" : "outlet",
									"numinlets" : 1,
									"numoutlets" : 0,
									"patching_rect" : [ 436.0, 453.0, 30.0, 30.0 ]
								}

							}
, 							{
								"box" : 								{
									"comment" : "Pitch",
									"id" : "obj-4",
									"index" : 1,
									"maxclass" : "outlet",
									"numinlets" : 1,
									"numoutlets" : 0,
									"patching_rect" : [ 365.0, 453.0, 30.0, 30.0 ]
								}

							}
, 							{
								"box" : 								{
									"comment" : "Signal to Tuner",
									"id" : "obj-3",
									"index" : 1,
									"maxclass" : "inlet",
									"numinlets" : 0,
									"numoutlets" : 1,
									"outlettype" : [ "signal" ],
									"patching_rect" : [ 40.0, 67.0, 30.0, 30.0 ]
								}

							}
, 							{
								"box" : 								{
									"format" : 6,
									"id" : "obj-23",
									"maxclass" : "flonum",
									"numinlets" : 1,
									"numoutlets" : 2,
									"outlettype" : [ "", "bang" ],
									"parameter_enable" : 0,
									"patching_rect" : [ 59.0, 501.0, 51.0, 23.0 ],
									"style" : "rnbomonokai"
								}

							}
, 							{
								"box" : 								{
									"format" : 4,
									"id" : "obj-21",
									"maxclass" : "number",
									"numinlets" : 1,
									"numoutlets" : 2,
									"outlettype" : [ "", "bang" ],
									"parameter_enable" : 0,
									"patching_rect" : [ 365.0, 399.0, 54.0, 23.0 ],
									"style" : "rnbomonokai"
								}

							}
, 							{
								"box" : 								{
									"format" : 6,
									"id" : "obj-19",
									"maxclass" : "flonum",
									"numinlets" : 1,
									"numoutlets" : 2,
									"outlettype" : [ "", "bang" ],
									"parameter_enable" : 0,
									"patching_rect" : [ 436.0, 399.0, 52.0, 23.0 ],
									"style" : "rnbomonokai"
								}

							}
, 							{
								"box" : 								{
									"floatoutput" : 1,
									"id" : "obj-17",
									"maxclass" : "slider",
									"numinlets" : 1,
									"numoutlets" : 1,
									"outlettype" : [ "" ],
									"parameter_enable" : 0,
									"patching_rect" : [ 281.0, 492.0, 218.0, 57.0 ],
									"style" : "rnbomonokai"
								}

							}
, 							{
								"box" : 								{
									"id" : "obj-15",
									"maxclass" : "newobj",
									"numinlets" : 6,
									"numoutlets" : 1,
									"outlettype" : [ "" ],
									"patching_rect" : [ 123.0, 399.0, 121.0, 22.0 ],
									"text" : "scale -50. 50. 0. 127."
								}

							}
, 							{
								"box" : 								{
									"id" : "obj-14",
									"maxclass" : "newobj",
									"numinlets" : 2,
									"numoutlets" : 1,
									"outlettype" : [ "" ],
									"patching_rect" : [ 123.0, 358.0, 144.0, 22.0 ],
									"text" : "expr ln($f1/$f2) * 1731.24"
								}

							}
, 							{
								"box" : 								{
									"id" : "obj-11",
									"maxclass" : "newobj",
									"numinlets" : 1,
									"numoutlets" : 1,
									"outlettype" : [ "" ],
									"patching_rect" : [ 40.0, 302.0, 32.0, 22.0 ],
									"text" : "mtof"
								}

							}
, 							{
								"box" : 								{
									"id" : "obj-8",
									"maxclass" : "kslider",
									"numinlets" : 2,
									"numoutlets" : 2,
									"outlettype" : [ "int", "int" ],
									"parameter_enable" : 0,
									"patching_rect" : [ 40.0, 215.0, 336.0, 53.0 ]
								}

							}
, 							{
								"box" : 								{
									"id" : "obj-6",
									"maxclass" : "newobj",
									"numinlets" : 1,
									"numoutlets" : 1,
									"outlettype" : [ "" ],
									"patching_rect" : [ 40.0, 167.0, 32.0, 22.0 ],
									"text" : "ftom"
								}

							}
, 							{
								"box" : 								{
									"id" : "obj-5",
									"maxclass" : "newobj",
									"numinlets" : 1,
									"numoutlets" : 3,
									"outlettype" : [ "float", "float", "" ],
									"patching_rect" : [ 40.0, 132.0, 42.0, 22.0 ],
									"text" : "fzero~"
								}

							}
 ],
						"lines" : [ 							{
								"patchline" : 								{
									"destination" : [ "obj-14", 1 ],
									"order" : 1,
									"source" : [ "obj-11", 0 ]
								}

							}
, 							{
								"patchline" : 								{
									"destination" : [ "obj-19", 0 ],
									"order" : 0,
									"source" : [ "obj-11", 0 ]
								}

							}
, 							{
								"patchline" : 								{
									"destination" : [ "obj-15", 0 ],
									"order" : 0,
									"source" : [ "obj-14", 0 ]
								}

							}
, 							{
								"patchline" : 								{
									"destination" : [ "obj-23", 0 ],
									"order" : 1,
									"source" : [ "obj-14", 0 ]
								}

							}
, 							{
								"patchline" : 								{
									"destination" : [ "obj-17", 0 ],
									"source" : [ "obj-15", 0 ]
								}

							}
, 							{
								"patchline" : 								{
									"destination" : [ "obj-7", 0 ],
									"source" : [ "obj-19", 0 ]
								}

							}
, 							{
								"patchline" : 								{
									"destination" : [ "obj-4", 0 ],
									"source" : [ "obj-21", 0 ]
								}

							}
, 							{
								"patchline" : 								{
									"destination" : [ "obj-5", 0 ],
									"source" : [ "obj-3", 0 ]
								}

							}
, 							{
								"patchline" : 								{
									"destination" : [ "obj-14", 0 ],
									"order" : 0,
									"source" : [ "obj-5", 0 ]
								}

							}
, 							{
								"patchline" : 								{
									"destination" : [ "obj-6", 0 ],
									"order" : 1,
									"source" : [ "obj-5", 0 ]
								}

							}
, 							{
								"patchline" : 								{
									"destination" : [ "obj-8", 0 ],
									"source" : [ "obj-6", 0 ]
								}

							}
, 							{
								"patchline" : 								{
									"destination" : [ "obj-11", 0 ],
									"order" : 1,
									"source" : [ "obj-8", 0 ]
								}

							}
, 							{
								"patchline" : 								{
									"destination" : [ "obj-21", 0 ],
									"order" : 0,
									"source" : [ "obj-8", 0 ]
								}

							}
 ],
						"styles" : [ 							{
								"name" : "rnbomonokai",
								"default" : 								{
									"accentcolor" : [ 0.501960784313725, 0.501960784313725, 0.501960784313725, 1.0 ],
									"bgcolor" : [ 0.0, 0.0, 0.0, 1.0 ],
									"bgfillcolor" : 									{
										"angle" : 270.0,
										"autogradient" : 0.0,
										"color" : [ 0.0, 0.0, 0.0, 1.0 ],
										"color1" : [ 0.031372549019608, 0.125490196078431, 0.211764705882353, 1.0 ],
										"color2" : [ 0.263682, 0.004541, 0.038797, 1.0 ],
										"proportion" : 0.39,
										"type" : "color"
									}
,
									"clearcolor" : [ 0.976470588235294, 0.96078431372549, 0.917647058823529, 1.0 ],
									"color" : [ 0.611764705882353, 0.125490196078431, 0.776470588235294, 1.0 ],
									"editing_bgcolor" : [ 0.976470588235294, 0.96078431372549, 0.917647058823529, 1.0 ],
									"elementcolor" : [ 0.749019607843137, 0.83921568627451, 1.0, 1.0 ],
									"fontname" : [ "Lato" ],
									"locked_bgcolor" : [ 0.976470588235294, 0.96078431372549, 0.917647058823529, 1.0 ],
									"stripecolor" : [ 0.796078431372549, 0.207843137254902, 1.0, 1.0 ],
									"textcolor" : [ 0.129412, 0.129412, 0.129412, 1.0 ]
								}
,
								"parentstyle" : "",
								"multi" : 0
							}
 ]
					}
,
					"patching_rect" : [ 390.5, 438.5, 46.0, 22.0 ],
					"saved_object_attributes" : 					{
						"description" : "",
						"digest" : "",
						"globalpatchername" : "",
						"tags" : ""
					}
,
					"text" : "p tuner"
				}

			}
, 			{
				"box" : 				{
					"id" : "obj-4",
					"maxclass" : "ezadc~",
					"numinlets" : 1,
					"numoutlets" : 2,
					"outlettype" : [ "signal", "signal" ],
					"patching_rect" : [ 71.249999999999986, 45.0, 45.0, 45.0 ]
				}

			}
, 			{
				"box" : 				{
					"id" : "obj-3",
					"maxclass" : "ezdac~",
					"numinlets" : 2,
					"numoutlets" : 0,
					"patching_rect" : [ 71.249999999999986, 960.000010371208191, 50.5, 50.5 ]
				}

			}
, 			{
				"box" : 				{
					"id" : "obj-1",
					"maxclass" : "newobj",
					"numinlets" : 4,
					"numoutlets" : 2,
					"outlettype" : [ "signal", "signal" ],
					"patching_rect" : [ 205.499999999999972, 717.0, 77.0, 22.0 ],
					"text" : "CNET.reverb"
				}

			}
 ],
		"lines" : [ 			{
				"patchline" : 				{
					"destination" : [ "obj-3", 1 ],
					"source" : [ "obj-1", 1 ]
				}

			}
, 			{
				"patchline" : 				{
					"destination" : [ "obj-3", 0 ],
					"source" : [ "obj-1", 0 ]
				}

			}
, 			{
				"patchline" : 				{
					"destination" : [ "obj-108", 0 ],
					"source" : [ "obj-107", 0 ]
				}

			}
, 			{
				"patchline" : 				{
					"destination" : [ "obj-109", 0 ],
					"source" : [ "obj-108", 0 ]
				}

			}
, 			{
				"patchline" : 				{
					"destination" : [ "obj-87", 0 ],
					"source" : [ "obj-109", 0 ]
				}

			}
, 			{
				"patchline" : 				{
					"destination" : [ "obj-107", 0 ],
					"source" : [ "obj-110", 0 ]
				}

			}
, 			{
				"patchline" : 				{
					"destination" : [ "obj-3", 1 ],
					"source" : [ "obj-115", 0 ]
				}

			}
, 			{
				"patchline" : 				{
					"destination" : [ "obj-107", 1 ],
					"source" : [ "obj-117", 0 ]
				}

			}
, 			{
				"patchline" : 				{
					"destination" : [ "obj-108", 1 ],
					"source" : [ "obj-118", 0 ]
				}

			}
, 			{
				"patchline" : 				{
					"destination" : [ "obj-90", 1 ],
					"source" : [ "obj-120", 0 ]
				}

			}
, 			{
				"patchline" : 				{
					"destination" : [ "obj-90", 2 ],
					"source" : [ "obj-122", 0 ]
				}

			}
, 			{
				"patchline" : 				{
					"destination" : [ "obj-117", 0 ],
					"source" : [ "obj-125", 0 ]
				}

			}
, 			{
				"patchline" : 				{
					"destination" : [ "obj-128", 0 ],
					"source" : [ "obj-127", 1 ]
				}

			}
, 			{
				"patchline" : 				{
					"destination" : [ "obj-138", 0 ],
					"source" : [ "obj-127", 0 ]
				}

			}
, 			{
				"patchline" : 				{
					"destination" : [ "obj-28", 0 ],
					"source" : [ "obj-128", 0 ]
				}

			}
, 			{
				"patchline" : 				{
					"destination" : [ "obj-127", 0 ],
					"order" : 0,
					"source" : [ "obj-129", 0 ]
				}

			}
, 			{
				"patchline" : 				{
					"destination" : [ "obj-133", 0 ],
					"order" : 1,
					"source" : [ "obj-129", 0 ]
				}

			}
, 			{
				"patchline" : 				{
					"destination" : [ "obj-160", 0 ],
					"source" : [ "obj-129", 1 ]
				}

			}
, 			{
				"patchline" : 				{
					"destination" : [ "obj-129", 0 ],
					"source" : [ "obj-135", 0 ]
				}

			}
, 			{
				"patchline" : 				{
					"destination" : [ "obj-23", 0 ],
					"source" : [ "obj-138", 0 ]
				}

			}
, 			{
				"patchline" : 				{
					"destination" : [ "obj-135", 0 ],
					"source" : [ "obj-143", 0 ]
				}

			}
, 			{
				"patchline" : 				{
					"destination" : [ "obj-129", 0 ],
					"source" : [ "obj-150", 0 ]
				}

			}
, 			{
				"patchline" : 				{
					"destination" : [ "obj-150", 0 ],
					"source" : [ "obj-152", 0 ]
				}

			}
, 			{
				"patchline" : 				{
					"destination" : [ "obj-88", 1 ],
					"source" : [ "obj-153", 0 ]
				}

			}
, 			{
				"patchline" : 				{
					"destination" : [ "obj-88", 2 ],
					"source" : [ "obj-154", 0 ]
				}

			}
, 			{
				"patchline" : 				{
					"destination" : [ "obj-8", 1 ],
					"source" : [ "obj-155", 0 ]
				}

			}
, 			{
				"patchline" : 				{
					"destination" : [ "obj-152", 0 ],
					"source" : [ "obj-157", 0 ]
				}

			}
, 			{
				"patchline" : 				{
					"destination" : [ "obj-155", 0 ],
					"source" : [ "obj-158", 0 ]
				}

			}
, 			{
				"patchline" : 				{
					"destination" : [ "obj-129", 1 ],
					"source" : [ "obj-160", 0 ]
				}

			}
, 			{
				"patchline" : 				{
					"destination" : [ "obj-7", 0 ],
					"source" : [ "obj-17", 0 ]
				}

			}
, 			{
				"patchline" : 				{
					"destination" : [ "obj-88", 0 ],
					"source" : [ "obj-2", 1 ]
				}

			}
, 			{
				"patchline" : 				{
					"destination" : [ "obj-88", 0 ],
					"source" : [ "obj-2", 0 ]
				}

			}
, 			{
				"patchline" : 				{
					"destination" : [ "obj-7", 1 ],
					"source" : [ "obj-21", 0 ]
				}

			}
, 			{
				"patchline" : 				{
					"destination" : [ "obj-2", 0 ],
					"source" : [ "obj-23", 0 ]
				}

			}
, 			{
				"patchline" : 				{
					"destination" : [ "obj-7", 3 ],
					"source" : [ "obj-25", 0 ]
				}

			}
, 			{
				"patchline" : 				{
					"destination" : [ "obj-23", 1 ],
					"source" : [ "obj-26", 0 ]
				}

			}
, 			{
				"patchline" : 				{
					"destination" : [ "obj-7", 4 ],
					"source" : [ "obj-27", 0 ]
				}

			}
, 			{
				"patchline" : 				{
					"destination" : [ "obj-110", 0 ],
					"source" : [ "obj-28", 1 ]
				}

			}
, 			{
				"patchline" : 				{
					"destination" : [ "obj-64", 0 ],
					"source" : [ "obj-31", 0 ]
				}

			}
, 			{
				"patchline" : 				{
					"destination" : [ "obj-125", 0 ],
					"source" : [ "obj-32", 0 ]
				}

			}
, 			{
				"patchline" : 				{
					"destination" : [ "obj-66", 0 ],
					"source" : [ "obj-33", 0 ]
				}

			}
, 			{
				"patchline" : 				{
					"destination" : [ "obj-7", 5 ],
					"source" : [ "obj-34", 0 ]
				}

			}
, 			{
				"patchline" : 				{
					"destination" : [ "obj-26", 0 ],
					"source" : [ "obj-36", 0 ]
				}

			}
, 			{
				"patchline" : 				{
					"destination" : [ "obj-31", 0 ],
					"source" : [ "obj-37", 0 ]
				}

			}
, 			{
				"patchline" : 				{
					"destination" : [ "obj-7", 2 ],
					"source" : [ "obj-38", 0 ]
				}

			}
, 			{
				"patchline" : 				{
					"destination" : [ "obj-32", 0 ],
					"source" : [ "obj-39", 0 ]
				}

			}
, 			{
				"patchline" : 				{
					"destination" : [ "obj-127", 1 ],
					"order" : 1,
					"source" : [ "obj-4", 1 ]
				}

			}
, 			{
				"patchline" : 				{
					"destination" : [ "obj-127", 1 ],
					"order" : 1,
					"source" : [ "obj-4", 0 ]
				}

			}
, 			{
				"patchline" : 				{
					"destination" : [ "obj-53", 1 ],
					"order" : 0,
					"source" : [ "obj-4", 1 ]
				}

			}
, 			{
				"patchline" : 				{
					"destination" : [ "obj-53", 1 ],
					"order" : 0,
					"source" : [ "obj-4", 0 ]
				}

			}
, 			{
				"patchline" : 				{
					"destination" : [ "obj-8", 0 ],
					"order" : 2,
					"source" : [ "obj-4", 1 ]
				}

			}
, 			{
				"patchline" : 				{
					"destination" : [ "obj-8", 0 ],
					"order" : 2,
					"source" : [ "obj-4", 0 ]
				}

			}
, 			{
				"patchline" : 				{
					"destination" : [ "obj-38", 0 ],
					"source" : [ "obj-40", 0 ]
				}

			}
, 			{
				"patchline" : 				{
					"destination" : [ "obj-33", 0 ],
					"source" : [ "obj-41", 0 ]
				}

			}
, 			{
				"patchline" : 				{
					"destination" : [ "obj-7", 6 ],
					"source" : [ "obj-47", 0 ]
				}

			}
, 			{
				"patchline" : 				{
					"destination" : [ "obj-1", 1 ],
					"source" : [ "obj-50", 0 ]
				}

			}
, 			{
				"patchline" : 				{
					"destination" : [ "obj-93", 0 ],
					"source" : [ "obj-53", 1 ]
				}

			}
, 			{
				"patchline" : 				{
					"destination" : [ "obj-94", 0 ],
					"source" : [ "obj-53", 0 ]
				}

			}
, 			{
				"patchline" : 				{
					"destination" : [ "obj-2", 1 ],
					"source" : [ "obj-57", 0 ]
				}

			}
, 			{
				"patchline" : 				{
					"destination" : [ "obj-1", 2 ],
					"order" : 1,
					"source" : [ "obj-59", 0 ]
				}

			}
, 			{
				"patchline" : 				{
					"destination" : [ "obj-2", 2 ],
					"order" : 2,
					"source" : [ "obj-59", 0 ]
				}

			}
, 			{
				"patchline" : 				{
					"destination" : [ "obj-8", 2 ],
					"order" : 3,
					"source" : [ "obj-59", 0 ]
				}

			}
, 			{
				"patchline" : 				{
					"destination" : [ "obj-89", 2 ],
					"order" : 0,
					"source" : [ "obj-59", 0 ]
				}

			}
, 			{
				"patchline" : 				{
					"destination" : [ "obj-120", 0 ],
					"order" : 5,
					"source" : [ "obj-60", 0 ]
				}

			}
, 			{
				"patchline" : 				{
					"destination" : [ "obj-122", 1 ],
					"order" : 4,
					"source" : [ "obj-60", 0 ]
				}

			}
, 			{
				"patchline" : 				{
					"destination" : [ "obj-157", 0 ],
					"order" : 0,
					"source" : [ "obj-60", 0 ]
				}

			}
, 			{
				"patchline" : 				{
					"destination" : [ "obj-50", 0 ],
					"order" : 7,
					"source" : [ "obj-60", 0 ]
				}

			}
, 			{
				"patchline" : 				{
					"destination" : [ "obj-57", 0 ],
					"order" : 8,
					"source" : [ "obj-60", 0 ]
				}

			}
, 			{
				"patchline" : 				{
					"destination" : [ "obj-59", 0 ],
					"order" : 2,
					"source" : [ "obj-60", 0 ]
				}

			}
, 			{
				"patchline" : 				{
					"destination" : [ "obj-62", 0 ],
					"order" : 3,
					"source" : [ "obj-60", 0 ]
				}

			}
, 			{
				"patchline" : 				{
					"destination" : [ "obj-68", 0 ],
					"order" : 1,
					"source" : [ "obj-60", 0 ]
				}

			}
, 			{
				"patchline" : 				{
					"destination" : [ "obj-69", 0 ],
					"order" : 6,
					"source" : [ "obj-60", 0 ]
				}

			}
, 			{
				"patchline" : 				{
					"destination" : [ "obj-1", 3 ],
					"order" : 3,
					"source" : [ "obj-62", 0 ]
				}

			}
, 			{
				"patchline" : 				{
					"destination" : [ "obj-2", 3 ],
					"order" : 4,
					"source" : [ "obj-62", 0 ]
				}

			}
, 			{
				"patchline" : 				{
					"destination" : [ "obj-8", 3 ],
					"order" : 5,
					"source" : [ "obj-62", 0 ]
				}

			}
, 			{
				"patchline" : 				{
					"destination" : [ "obj-88", 3 ],
					"order" : 2,
					"source" : [ "obj-62", 0 ]
				}

			}
, 			{
				"patchline" : 				{
					"destination" : [ "obj-89", 3 ],
					"order" : 1,
					"source" : [ "obj-62", 0 ]
				}

			}
, 			{
				"patchline" : 				{
					"destination" : [ "obj-90", 3 ],
					"order" : 0,
					"source" : [ "obj-62", 0 ]
				}

			}
, 			{
				"patchline" : 				{
					"destination" : [ "obj-153", 0 ],
					"source" : [ "obj-64", 0 ]
				}

			}
, 			{
				"patchline" : 				{
					"destination" : [ "obj-154", 0 ],
					"source" : [ "obj-66", 0 ]
				}

			}
, 			{
				"patchline" : 				{
					"destination" : [ "obj-88", 4 ],
					"order" : 1,
					"source" : [ "obj-68", 0 ]
				}

			}
, 			{
				"patchline" : 				{
					"destination" : [ "obj-90", 4 ],
					"order" : 0,
					"source" : [ "obj-68", 0 ]
				}

			}
, 			{
				"patchline" : 				{
					"destination" : [ "obj-89", 1 ],
					"source" : [ "obj-69", 0 ]
				}

			}
, 			{
				"patchline" : 				{
					"destination" : [ "obj-118", 0 ],
					"source" : [ "obj-7", 4 ]
				}

			}
, 			{
				"patchline" : 				{
					"destination" : [ "obj-143", 0 ],
					"source" : [ "obj-7", 6 ]
				}

			}
, 			{
				"patchline" : 				{
					"destination" : [ "obj-158", 0 ],
					"source" : [ "obj-7", 1 ]
				}

			}
, 			{
				"patchline" : 				{
					"destination" : [ "obj-36", 0 ],
					"source" : [ "obj-7", 0 ]
				}

			}
, 			{
				"patchline" : 				{
					"destination" : [ "obj-37", 0 ],
					"source" : [ "obj-7", 3 ]
				}

			}
, 			{
				"patchline" : 				{
					"destination" : [ "obj-41", 0 ],
					"source" : [ "obj-7", 5 ]
				}

			}
, 			{
				"patchline" : 				{
					"destination" : [ "obj-43", 0 ],
					"source" : [ "obj-7", 10 ]
				}

			}
, 			{
				"patchline" : 				{
					"destination" : [ "obj-98", 0 ],
					"source" : [ "obj-7", 7 ]
				}

			}
, 			{
				"patchline" : 				{
					"destination" : [ "obj-3", 1 ],
					"source" : [ "obj-8", 1 ]
				}

			}
, 			{
				"patchline" : 				{
					"destination" : [ "obj-3", 0 ],
					"source" : [ "obj-8", 0 ]
				}

			}
, 			{
				"patchline" : 				{
					"destination" : [ "obj-89", 0 ],
					"source" : [ "obj-87", 0 ]
				}

			}
, 			{
				"patchline" : 				{
					"destination" : [ "obj-1", 0 ],
					"source" : [ "obj-88", 0 ]
				}

			}
, 			{
				"patchline" : 				{
					"destination" : [ "obj-53", 1 ],
					"order" : 1,
					"source" : [ "obj-89", 1 ]
				}

			}
, 			{
				"patchline" : 				{
					"destination" : [ "obj-53", 1 ],
					"order" : 1,
					"source" : [ "obj-89", 0 ]
				}

			}
, 			{
				"patchline" : 				{
					"destination" : [ "obj-90", 0 ],
					"order" : 0,
					"source" : [ "obj-89", 1 ]
				}

			}
, 			{
				"patchline" : 				{
					"destination" : [ "obj-90", 0 ],
					"order" : 0,
					"source" : [ "obj-89", 0 ]
				}

			}
, 			{
				"patchline" : 				{
					"destination" : [ "obj-115", 0 ],
					"source" : [ "obj-90", 0 ]
				}

			}
, 			{
				"patchline" : 				{
					"destination" : [ "obj-3", 1 ],
					"source" : [ "obj-93", 0 ]
				}

			}
, 			{
				"patchline" : 				{
					"destination" : [ "obj-3", 0 ],
					"source" : [ "obj-94", 0 ]
				}

			}
, 			{
				"patchline" : 				{
					"destination" : [ "obj-96", 0 ],
					"source" : [ "obj-98", 0 ]
				}

			}
 ],
		"parameters" : 		{
			"obj-53::obj-15" : [ "preverb[2]", "Preverb (ms)", 0 ],
			"obj-53::obj-33" : [ "togglebp[3]", "Bypass out Enabled", 0 ],
			"obj-53::obj-39" : [ "togglebp[4]", "pan shifting enabled", 0 ],
			"obj-53::obj-49" : [ "Panspeed[1]", "Pan Speed (ms)", 0 ],
			"obj-53::obj-8" : [ "postverb[1]", "Postverb (ms)", 0 ],
			"obj-53::obj-87" : [ "stereogain[1]", "Stereo Effect Gain", 0 ],
			"obj-53::obj-90" : [ "monogain[1]", "Mono Effect Gain", 0 ],
			"parameterbanks" : 			{
				"0" : 				{
					"index" : 0,
					"name" : "",
					"parameters" : [ "-", "-", "-", "-", "-", "-", "-", "-" ]
				}

			}
,
			"parameter_overrides" : 			{
				"obj-53::obj-15" : 				{
					"parameter_longname" : "preverb[2]"
				}
,
				"obj-53::obj-33" : 				{
					"parameter_longname" : "togglebp[3]"
				}
,
				"obj-53::obj-39" : 				{
					"parameter_longname" : "togglebp[4]"
				}
,
				"obj-53::obj-49" : 				{
					"parameter_longname" : "Panspeed[1]"
				}
,
				"obj-53::obj-8" : 				{
					"parameter_longname" : "postverb[1]"
				}
,
				"obj-53::obj-87" : 				{
					"parameter_longname" : "stereogain[1]"
				}
,
				"obj-53::obj-90" : 				{
					"parameter_longname" : "monogain[1]"
				}

			}
,
			"inherited_shortname" : 1
		}
,
		"dependency_cache" : [ 			{
				"name" : "CNET.feedbackDelay.maxpat",
				"bootpath" : "~/Documents/GitHub/Cyberinet/Lecture Recital",
				"patcherrelativepath" : "..",
				"type" : "JSON",
				"implicit" : 1
			}
, 			{
				"name" : "CNET.receive.maxpat",
				"bootpath" : "~/Documents/GitHub/Cyberinet/Lecture Recital",
				"patcherrelativepath" : "..",
				"type" : "JSON",
				"implicit" : 1
			}
, 			{
				"name" : "CNET.reverb.maxpat",
				"bootpath" : "~/Documents/GitHub/Cyberinet/Lecture Recital",
				"patcherrelativepath" : "..",
				"type" : "JSON",
				"implicit" : 1
			}
, 			{
				"name" : "emdm.ANG~.maxpat",
				"bootpath" : "~/Documents/maxlibraries/emdm.ANG_/emdm.ANG~/emdm.ang~/patchers",
				"patcherrelativepath" : "../../../../maxlibraries/emdm.ANG_/emdm.ANG~/emdm.ang~/patchers",
				"type" : "JSON",
				"implicit" : 1
			}
, 			{
				"name" : "emdm.serial.js",
				"bootpath" : "~/Documents/GitHub/Cyberinet/Lecture Recital",
				"patcherrelativepath" : "..",
				"type" : "TEXT",
				"implicit" : 1
			}
, 			{
				"name" : "fit_jweb_to_bounds.js",
				"bootpath" : "C74:/packages/Node for Max/patchers/debug-monitor",
				"type" : "TEXT",
				"implicit" : 1
			}
, 			{
				"name" : "n4m.monitor.maxpat",
				"bootpath" : "C74:/packages/Node for Max/patchers/debug-monitor",
				"type" : "JSON",
				"implicit" : 1
			}
, 			{
				"name" : "nw.gverb~.mxe64",
				"type" : "mx64"
			}
, 			{
				"name" : "panmodule2.maxpat",
				"bootpath" : "~/Documents/maxlibraries/emdm.ANG_/emdm.ANG~/emdm.ang~/patchers",
				"patcherrelativepath" : "../../../../maxlibraries/emdm.ANG_/emdm.ANG~/emdm.ang~/patchers",
				"type" : "JSON",
				"implicit" : 1
			}
, 			{
				"name" : "resize_n4m_monitor_patcher.js",
				"bootpath" : "C74:/packages/Node for Max/patchers/debug-monitor",
				"type" : "TEXT",
				"implicit" : 1
			}
, 			{
				"name" : "sigmund~.mxe64",
				"type" : "mx64"
			}
 ],
		"autosave" : 0,
		"bgcolor" : [ 1.0, 0.576470588235294, 0.0, 1.0 ]
	}

}
