{
	"patcher" : 	{
		"fileversion" : 1,
		"appversion" : 		{
			"major" : 8,
			"minor" : 5,
			"revision" : 3,
			"architecture" : "x64",
			"modernui" : 1
		}
,
		"classnamespace" : "box",
		"rect" : [ 34.0, 85.0, 1452.0, 929.0 ],
		"bglocked" : 0,
		"openinpresentation" : 1,
		"default_fontsize" : 12.0,
		"default_fontface" : 0,
		"default_fontname" : "Futura PT",
		"gridonopen" : 1,
		"gridsize" : [ 15.0, 15.0 ],
		"gridsnaponopen" : 1,
		"objectsnaponopen" : 1,
		"statusbarvisible" : 2,
		"toolbarvisible" : 1,
		"lefttoolbarpinned" : 0,
		"toptoolbarpinned" : 0,
		"righttoolbarpinned" : 0,
		"bottomtoolbarpinned" : 0,
		"toolbars_unpinned_last_save" : 0,
		"tallnewobj" : 0,
		"boxanimatetime" : 200,
		"enablehscroll" : 1,
		"enablevscroll" : 1,
		"devicewidth" : 0.0,
		"description" : "",
		"digest" : "",
		"tags" : "",
		"style" : "",
		"subpatcher_template" : "",
		"assistshowspatchername" : 0,
		"boxes" : [ 			{
				"box" : 				{
					"id" : "obj-57",
					"maxclass" : "comment",
					"numinlets" : 1,
					"numoutlets" : 0,
					"patching_rect" : [ 1628.0, 823.0, 150.0, 22.0 ],
					"presentation" : 1,
					"presentation_rect" : [ 665.0, 221.0, 85.0, 22.0 ],
					"text" : "Emergency stop"
				}

			}
, 			{
				"box" : 				{
					"bgcolor" : [ 0.964705882352941, 0.023529411764706, 0.023529411764706, 1.0 ],
					"id" : "obj-53",
					"maxclass" : "button",
					"numinlets" : 1,
					"numoutlets" : 1,
					"outlettype" : [ "bang" ],
					"parameter_enable" : 0,
					"patching_rect" : [ 1548.0, 356.0, 86.0, 86.0 ],
					"presentation" : 1,
					"presentation_rect" : [ 577.0, 157.0, 86.0, 86.0 ]
				}

			}
, 			{
				"box" : 				{
					"id" : "obj-51",
					"linecount" : 2,
					"maxclass" : "message",
					"numinlets" : 2,
					"numoutlets" : 1,
					"outlettype" : [ "" ],
					"patching_rect" : [ 1548.0, 481.0, 48.0, 39.0 ],
					"text" : ";\r\ndsp stop"
				}

			}
, 			{
				"box" : 				{
					"comment" : "emergency Stop (button2)",
					"id" : "obj-47",
					"index" : 0,
					"maxclass" : "inlet",
					"numinlets" : 0,
					"numoutlets" : 1,
					"outlettype" : [ "" ],
					"patching_rect" : [ 1548.0, 300.0, 30.0, 30.0 ]
				}

			}
, 			{
				"box" : 				{
					"id" : "obj-44",
					"maxclass" : "comment",
					"numinlets" : 1,
					"numoutlets" : 0,
					"patching_rect" : [ 1634.0, 823.0, 150.0, 22.0 ],
					"presentation" : 1,
					"presentation_linecount" : 3,
					"presentation_rect" : [ 577.0, 103.0, 45.0, 53.0 ],
					"text" : "Main Output Volume"
				}

			}
, 			{
				"box" : 				{
					"id" : "obj-42",
					"maxclass" : "comment",
					"numinlets" : 1,
					"numoutlets" : 0,
					"patching_rect" : [ 1610.85714285714289, 741.0, 150.0, 22.0 ],
					"presentation" : 1,
					"presentation_rect" : [ 153.0, 358.0, 50.0, 22.0 ],
					"text" : "REVERB"
				}

			}
, 			{
				"box" : 				{
					"id" : "obj-37",
					"maxclass" : "comment",
					"numinlets" : 1,
					"numoutlets" : 0,
					"patching_rect" : [ 1651.85714285714289, 760.0, 150.0, 22.0 ],
					"presentation" : 1,
					"presentation_rect" : [ 146.14285714285711, 396.0, 150.0, 22.0 ],
					"text" : "room size            damping freq"
				}

			}
, 			{
				"box" : 				{
					"id" : "obj-34",
					"maxclass" : "comment",
					"numinlets" : 1,
					"numoutlets" : 0,
					"patching_rect" : [ 379.0, 409.0, 150.0, 22.0 ],
					"presentation" : 1,
					"presentation_rect" : [ 351.0, 396.0, 65.0, 22.0 ],
					"text" : "output gain"
				}

			}
, 			{
				"box" : 				{
					"id" : "obj-32",
					"maxclass" : "comment",
					"numinlets" : 1,
					"numoutlets" : 0,
					"patching_rect" : [ 1620.0, 823.0, 150.0, 22.0 ],
					"presentation" : 1,
					"presentation_rect" : [ 131.35714285714289, 525.0, 83.14285714285711, 22.0 ],
					"text" : "COMPRESSOR"
				}

			}
, 			{
				"box" : 				{
					"id" : "obj-26",
					"linecount" : 2,
					"maxclass" : "comment",
					"numinlets" : 1,
					"numoutlets" : 0,
					"patching_rect" : [ 1620.0, 857.0, 150.0, 37.0 ],
					"presentation" : 1,
					"presentation_rect" : [ 31.0, 558.0, 294.0, 22.0 ],
					"text" : "input gain   threshold       ratio              attack            release"
				}

			}
, 			{
				"box" : 				{
					"id" : "obj-24",
					"maxclass" : "comment",
					"numinlets" : 1,
					"numoutlets" : 0,
					"patching_rect" : [ 1620.0, 783.0, 150.0, 22.0 ],
					"presentation" : 1,
					"presentation_rect" : [ 131.35714285714289, 667.0, 79.0, 22.0 ],
					"text" : "gain reduction"
				}

			}
, 			{
				"box" : 				{
					"id" : "obj-22",
					"maxclass" : "comment",
					"numinlets" : 1,
					"numoutlets" : 0,
					"patching_rect" : [ 1653.0, 781.0, 150.0, 22.0 ],
					"presentation" : 1,
					"presentation_rect" : [ 351.0, 558.0, 77.0, 22.0 ],
					"text" : "makeup gain"
				}

			}
, 			{
				"box" : 				{
					"id" : "obj-20",
					"maxclass" : "comment",
					"numinlets" : 1,
					"numoutlets" : 0,
					"patching_rect" : [ 309.0, 308.0, 150.0, 22.0 ],
					"presentation" : 1,
					"presentation_rect" : [ 289.0, 277.0, 77.0, 22.0 ],
					"text" : "sound file 4"
				}

			}
, 			{
				"box" : 				{
					"id" : "obj-16",
					"maxclass" : "comment",
					"numinlets" : 1,
					"numoutlets" : 0,
					"patching_rect" : [ 311.0, 220.0, 150.0, 22.0 ],
					"presentation" : 1,
					"presentation_rect" : [ 289.0, 201.0, 77.0, 22.0 ],
					"text" : "sound file 3"
				}

			}
, 			{
				"box" : 				{
					"id" : "obj-14",
					"maxclass" : "comment",
					"numinlets" : 1,
					"numoutlets" : 0,
					"patching_rect" : [ 301.0, 133.0, 150.0, 22.0 ],
					"presentation" : 1,
					"presentation_rect" : [ 289.0, 124.0, 77.0, 22.0 ],
					"text" : "sound file 2"
				}

			}
, 			{
				"box" : 				{
					"id" : "obj-9",
					"maxclass" : "comment",
					"numinlets" : 1,
					"numoutlets" : 0,
					"patching_rect" : [ 303.0, 46.0, 150.0, 22.0 ],
					"presentation" : 1,
					"presentation_rect" : [ 289.0, 41.0, 77.0, 22.0 ],
					"text" : "sound file 1"
				}

			}
, 			{
				"box" : 				{
					"id" : "obj-7",
					"maxclass" : "comment",
					"numinlets" : 1,
					"numoutlets" : 0,
					"patching_rect" : [ 704.0, 41.0, 47.0, 22.0 ],
					"text" : "defaults"
				}

			}
, 			{
				"box" : 				{
					"comment" : "Airflow Input",
					"id" : "obj-1",
					"index" : 0,
					"maxclass" : "inlet",
					"numinlets" : 0,
					"numoutlets" : 1,
					"outlettype" : [ "" ],
					"patching_rect" : [ 583.0, 33.0, 30.0, 30.0 ]
				}

			}
, 			{
				"box" : 				{
					"id" : "obj-63",
					"maxclass" : "newobj",
					"numinlets" : 1,
					"numoutlets" : 1,
					"outlettype" : [ "bang" ],
					"patching_rect" : [ 629.0, 41.0, 54.0, 24.0 ],
					"text" : "loadbang"
				}

			}
, 			{
				"box" : 				{
					"id" : "obj-61",
					"maxclass" : "message",
					"numinlets" : 2,
					"numoutlets" : 1,
					"outlettype" : [ "" ],
					"patching_rect" : [ 817.0, 203.0, 29.5, 24.0 ],
					"text" : "200"
				}

			}
, 			{
				"box" : 				{
					"id" : "obj-60",
					"maxclass" : "message",
					"numinlets" : 2,
					"numoutlets" : 1,
					"outlettype" : [ "" ],
					"patching_rect" : [ 769.0, 203.0, 29.5, 24.0 ],
					"text" : "100"
				}

			}
, 			{
				"box" : 				{
					"id" : "obj-58",
					"maxclass" : "message",
					"numinlets" : 2,
					"numoutlets" : 1,
					"outlettype" : [ "" ],
					"patching_rect" : [ 718.0, 203.0, 29.5, 24.0 ],
					"text" : "4"
				}

			}
, 			{
				"box" : 				{
					"id" : "obj-56",
					"maxclass" : "message",
					"numinlets" : 2,
					"numoutlets" : 1,
					"outlettype" : [ "" ],
					"patching_rect" : [ 673.0, 204.0, 29.5, 24.0 ],
					"text" : "-12"
				}

			}
, 			{
				"box" : 				{
					"id" : "obj-54",
					"maxclass" : "message",
					"numinlets" : 2,
					"numoutlets" : 1,
					"outlettype" : [ "" ],
					"patching_rect" : [ 629.0, 204.0, 29.5, 24.0 ],
					"text" : "-3"
				}

			}
, 			{
				"box" : 				{
					"comment" : "Gyro Y input",
					"id" : "obj-52",
					"index" : 0,
					"maxclass" : "inlet",
					"numinlets" : 0,
					"numoutlets" : 1,
					"outlettype" : [ "" ],
					"patching_rect" : [ 533.0, 33.0, 30.0, 30.0 ]
				}

			}
, 			{
				"box" : 				{
					"comment" : "Accel X Input",
					"id" : "obj-50",
					"index" : 0,
					"maxclass" : "inlet",
					"numinlets" : 0,
					"numoutlets" : 1,
					"outlettype" : [ "" ],
					"patching_rect" : [ 425.333333333333371, 33.0, 30.0, 30.0 ]
				}

			}
, 			{
				"box" : 				{
					"comment" : "Gyro X Input",
					"id" : "obj-49",
					"index" : 0,
					"maxclass" : "inlet",
					"numinlets" : 0,
					"numoutlets" : 1,
					"outlettype" : [ "" ],
					"patching_rect" : [ 375.666666666666629, 33.0, 30.0, 30.0 ]
				}

			}
, 			{
				"box" : 				{
					"id" : "obj-46",
					"maxclass" : "newobj",
					"numinlets" : 1,
					"numoutlets" : 0,
					"patcher" : 					{
						"fileversion" : 1,
						"appversion" : 						{
							"major" : 8,
							"minor" : 5,
							"revision" : 3,
							"architecture" : "x64",
							"modernui" : 1
						}
,
						"classnamespace" : "box",
						"rect" : [ 59.0, 107.0, 640.0, 480.0 ],
						"bglocked" : 0,
						"openinpresentation" : 0,
						"default_fontsize" : 12.0,
						"default_fontface" : 0,
						"default_fontname" : "Arial",
						"gridonopen" : 1,
						"gridsize" : [ 15.0, 15.0 ],
						"gridsnaponopen" : 1,
						"objectsnaponopen" : 1,
						"statusbarvisible" : 2,
						"toolbarvisible" : 1,
						"lefttoolbarpinned" : 0,
						"toptoolbarpinned" : 0,
						"righttoolbarpinned" : 0,
						"bottomtoolbarpinned" : 0,
						"toolbars_unpinned_last_save" : 0,
						"tallnewobj" : 0,
						"boxanimatetime" : 200,
						"enablehscroll" : 1,
						"enablevscroll" : 1,
						"devicewidth" : 0.0,
						"description" : "",
						"digest" : "",
						"tags" : "",
						"style" : "",
						"subpatcher_template" : "",
						"assistshowspatchername" : 0,
						"boxes" : [ 							{
								"box" : 								{
									"id" : "obj-44",
									"maxclass" : "number",
									"numinlets" : 1,
									"numoutlets" : 2,
									"outlettype" : [ "", "bang" ],
									"parameter_enable" : 0,
									"patching_rect" : [ 134.0, 136.0, 50.0, 22.0 ]
								}

							}
, 							{
								"box" : 								{
									"id" : "obj-59",
									"maxclass" : "toggle",
									"numinlets" : 1,
									"numoutlets" : 1,
									"outlettype" : [ "int" ],
									"parameter_enable" : 0,
									"patching_rect" : [ 231.5, 219.0, 24.0, 24.0 ],
									"presentation" : 1,
									"presentation_rect" : [ 593.0, 650.0, 24.0, 24.0 ]
								}

							}
, 							{
								"box" : 								{
									"id" : "obj-60",
									"maxclass" : "toggle",
									"numinlets" : 1,
									"numoutlets" : 1,
									"outlettype" : [ "int" ],
									"parameter_enable" : 0,
									"patching_rect" : [ 185.5, 219.0, 24.0, 24.0 ],
									"presentation" : 1,
									"presentation_rect" : [ 547.0, 650.0, 24.0, 24.0 ]
								}

							}
, 							{
								"box" : 								{
									"id" : "obj-61",
									"maxclass" : "toggle",
									"numinlets" : 1,
									"numoutlets" : 1,
									"outlettype" : [ "int" ],
									"parameter_enable" : 0,
									"patching_rect" : [ 134.0, 219.0, 24.0, 24.0 ],
									"presentation" : 1,
									"presentation_rect" : [ 495.5, 650.0, 24.0, 24.0 ]
								}

							}
, 							{
								"box" : 								{
									"id" : "obj-23",
									"maxclass" : "newobj",
									"numinlets" : 4,
									"numoutlets" : 4,
									"outlettype" : [ "", "", "", "" ],
									"patching_rect" : [ 134.0, 167.0, 159.0, 22.0 ],
									"text" : "route 2 3 4"
								}

							}
, 							{
								"box" : 								{
									"id" : "obj-22",
									"maxclass" : "newobj",
									"numinlets" : 5,
									"numoutlets" : 4,
									"outlettype" : [ "int", "", "", "int" ],
									"patching_rect" : [ 134.0, 105.0, 61.0, 22.0 ],
									"text" : "counter"
								}

							}
, 							{
								"box" : 								{
									"id" : "obj-19",
									"maxclass" : "newobj",
									"numinlets" : 1,
									"numoutlets" : 0,
									"patching_rect" : [ 281.0, 402.0, 62.0, 22.0 ],
									"text" : "send~ out"
								}

							}
, 							{
								"box" : 								{
									"id" : "obj-16",
									"maxclass" : "newobj",
									"numinlets" : 1,
									"numoutlets" : 2,
									"outlettype" : [ "signal", "bang" ],
									"patching_rect" : [ 419.5, 272.0, 76.0, 22.0 ],
									"text" : "play~ voice3"
								}

							}
, 							{
								"box" : 								{
									"id" : "obj-15",
									"maxclass" : "newobj",
									"numinlets" : 1,
									"numoutlets" : 2,
									"outlettype" : [ "signal", "bang" ],
									"patching_rect" : [ 281.0, 272.0, 76.0, 22.0 ],
									"text" : "play~ voice2"
								}

							}
, 							{
								"box" : 								{
									"id" : "obj-14",
									"maxclass" : "newobj",
									"numinlets" : 1,
									"numoutlets" : 2,
									"outlettype" : [ "signal", "bang" ],
									"patching_rect" : [ 134.0, 272.0, 76.0, 22.0 ],
									"text" : "play~ voice1"
								}

							}
, 							{
								"box" : 								{
									"comment" : "",
									"id" : "obj-1",
									"index" : 1,
									"maxclass" : "inlet",
									"numinlets" : 0,
									"numoutlets" : 1,
									"outlettype" : [ "bang" ],
									"patching_rect" : [ 21.0, 13.0, 30.0, 30.0 ]
								}

							}
 ],
						"lines" : [ 							{
								"patchline" : 								{
									"destination" : [ "obj-22", 0 ],
									"source" : [ "obj-1", 0 ]
								}

							}
, 							{
								"patchline" : 								{
									"destination" : [ "obj-19", 0 ],
									"source" : [ "obj-14", 0 ]
								}

							}
, 							{
								"patchline" : 								{
									"destination" : [ "obj-61", 0 ],
									"source" : [ "obj-14", 1 ]
								}

							}
, 							{
								"patchline" : 								{
									"destination" : [ "obj-19", 0 ],
									"source" : [ "obj-15", 0 ]
								}

							}
, 							{
								"patchline" : 								{
									"destination" : [ "obj-60", 0 ],
									"source" : [ "obj-15", 1 ]
								}

							}
, 							{
								"patchline" : 								{
									"destination" : [ "obj-19", 0 ],
									"source" : [ "obj-16", 0 ]
								}

							}
, 							{
								"patchline" : 								{
									"destination" : [ "obj-59", 0 ],
									"source" : [ "obj-16", 1 ]
								}

							}
, 							{
								"patchline" : 								{
									"destination" : [ "obj-44", 0 ],
									"source" : [ "obj-22", 0 ]
								}

							}
, 							{
								"patchline" : 								{
									"destination" : [ "obj-59", 0 ],
									"order" : 0,
									"source" : [ "obj-23", 2 ]
								}

							}
, 							{
								"patchline" : 								{
									"destination" : [ "obj-60", 0 ],
									"order" : 1,
									"source" : [ "obj-23", 2 ]
								}

							}
, 							{
								"patchline" : 								{
									"destination" : [ "obj-60", 0 ],
									"order" : 0,
									"source" : [ "obj-23", 1 ]
								}

							}
, 							{
								"patchline" : 								{
									"destination" : [ "obj-61", 0 ],
									"order" : 2,
									"source" : [ "obj-23", 2 ]
								}

							}
, 							{
								"patchline" : 								{
									"destination" : [ "obj-61", 0 ],
									"order" : 1,
									"source" : [ "obj-23", 1 ]
								}

							}
, 							{
								"patchline" : 								{
									"destination" : [ "obj-61", 0 ],
									"source" : [ "obj-23", 0 ]
								}

							}
, 							{
								"patchline" : 								{
									"destination" : [ "obj-23", 0 ],
									"source" : [ "obj-44", 0 ]
								}

							}
, 							{
								"patchline" : 								{
									"destination" : [ "obj-16", 0 ],
									"source" : [ "obj-59", 0 ]
								}

							}
, 							{
								"patchline" : 								{
									"destination" : [ "obj-15", 0 ],
									"source" : [ "obj-60", 0 ]
								}

							}
, 							{
								"patchline" : 								{
									"destination" : [ "obj-14", 0 ],
									"source" : [ "obj-61", 0 ]
								}

							}
 ]
					}
,
					"patching_rect" : [ 214.0, 227.0, 29.0, 24.0 ],
					"saved_object_attributes" : 					{
						"description" : "",
						"digest" : "",
						"globalpatchername" : "",
						"tags" : ""
					}
,
					"text" : "p PB"
				}

			}
, 			{
				"box" : 				{
					"id" : "obj-45",
					"maxclass" : "newobj",
					"numinlets" : 1,
					"numoutlets" : 0,
					"patcher" : 					{
						"fileversion" : 1,
						"appversion" : 						{
							"major" : 8,
							"minor" : 5,
							"revision" : 3,
							"architecture" : "x64",
							"modernui" : 1
						}
,
						"classnamespace" : "box",
						"rect" : [ 1109.0, 428.0, 640.0, 480.0 ],
						"bglocked" : 0,
						"openinpresentation" : 0,
						"default_fontsize" : 12.0,
						"default_fontface" : 0,
						"default_fontname" : "Arial",
						"gridonopen" : 1,
						"gridsize" : [ 15.0, 15.0 ],
						"gridsnaponopen" : 1,
						"objectsnaponopen" : 1,
						"statusbarvisible" : 2,
						"toolbarvisible" : 1,
						"lefttoolbarpinned" : 0,
						"toptoolbarpinned" : 0,
						"righttoolbarpinned" : 0,
						"bottomtoolbarpinned" : 0,
						"toolbars_unpinned_last_save" : 0,
						"tallnewobj" : 0,
						"boxanimatetime" : 200,
						"enablehscroll" : 1,
						"enablevscroll" : 1,
						"devicewidth" : 0.0,
						"description" : "",
						"digest" : "",
						"tags" : "",
						"style" : "",
						"subpatcher_template" : "",
						"assistshowspatchername" : 0,
						"boxes" : [ 							{
								"box" : 								{
									"id" : "obj-3",
									"maxclass" : "number",
									"numinlets" : 1,
									"numoutlets" : 2,
									"outlettype" : [ "", "bang" ],
									"parameter_enable" : 0,
									"patching_rect" : [ 253.5, 120.0, 50.0, 22.0 ]
								}

							}
, 							{
								"box" : 								{
									"id" : "obj-63",
									"maxclass" : "newobj",
									"numinlets" : 1,
									"numoutlets" : 1,
									"outlettype" : [ "signal" ],
									"patching_rect" : [ 74.0, 188.0, 74.0, 22.0 ],
									"text" : "receive~ rec"
								}

							}
, 							{
								"box" : 								{
									"id" : "obj-57",
									"maxclass" : "toggle",
									"numinlets" : 1,
									"numoutlets" : 1,
									"outlettype" : [ "int" ],
									"parameter_enable" : 0,
									"patching_rect" : [ 388.5, 284.0, 24.0, 24.0 ],
									"presentation" : 1,
									"presentation_rect" : [ 1386.0, 651.0, 24.0, 24.0 ]
								}

							}
, 							{
								"box" : 								{
									"id" : "obj-56",
									"maxclass" : "toggle",
									"numinlets" : 1,
									"numoutlets" : 1,
									"outlettype" : [ "int" ],
									"parameter_enable" : 0,
									"patching_rect" : [ 284.5, 284.0, 24.0, 24.0 ],
									"presentation" : 1,
									"presentation_rect" : [ 1282.0, 651.0, 24.0, 24.0 ]
								}

							}
, 							{
								"box" : 								{
									"id" : "obj-55",
									"maxclass" : "toggle",
									"numinlets" : 1,
									"numoutlets" : 1,
									"outlettype" : [ "int" ],
									"parameter_enable" : 0,
									"patching_rect" : [ 176.5, 284.0, 24.0, 24.0 ],
									"presentation" : 1,
									"presentation_rect" : [ 1174.0, 651.0, 24.0, 24.0 ]
								}

							}
, 							{
								"box" : 								{
									"fontface" : 0,
									"fontname" : "Arial",
									"fontsize" : 12.0,
									"id" : "obj-54",
									"maxclass" : "number~",
									"mode" : 2,
									"numinlets" : 2,
									"numoutlets" : 2,
									"outlettype" : [ "signal", "float" ],
									"patching_rect" : [ 388.5, 420.0, 56.0, 22.0 ],
									"sig" : 0.0
								}

							}
, 							{
								"box" : 								{
									"fontface" : 0,
									"fontname" : "Arial",
									"fontsize" : 12.0,
									"id" : "obj-53",
									"maxclass" : "number~",
									"mode" : 2,
									"numinlets" : 2,
									"numoutlets" : 2,
									"outlettype" : [ "signal", "float" ],
									"patching_rect" : [ 284.5, 420.0, 56.0, 22.0 ],
									"sig" : 0.0
								}

							}
, 							{
								"box" : 								{
									"fontface" : 0,
									"fontname" : "Arial",
									"fontsize" : 12.0,
									"id" : "obj-52",
									"maxclass" : "number~",
									"mode" : 2,
									"numinlets" : 2,
									"numoutlets" : 2,
									"outlettype" : [ "signal", "float" ],
									"patching_rect" : [ 176.5, 424.0, 56.0, 22.0 ],
									"sig" : 0.0
								}

							}
, 							{
								"box" : 								{
									"fontface" : 0,
									"fontname" : "Arial",
									"fontsize" : 12.0,
									"id" : "obj-51",
									"maxclass" : "number~",
									"mode" : 2,
									"numinlets" : 2,
									"numoutlets" : 2,
									"outlettype" : [ "signal", "float" ],
									"patching_rect" : [ 81.5, 424.0, 56.0, 22.0 ],
									"sig" : 0.0
								}

							}
, 							{
								"box" : 								{
									"id" : "obj-48",
									"maxclass" : "toggle",
									"numinlets" : 1,
									"numoutlets" : 1,
									"outlettype" : [ "int" ],
									"parameter_enable" : 0,
									"patching_rect" : [ 81.5, 284.0, 24.0, 24.0 ],
									"presentation" : 1,
									"presentation_rect" : [ 1079.0, 651.0, 24.0, 24.0 ]
								}

							}
, 							{
								"box" : 								{
									"id" : "obj-34",
									"linecount" : 2,
									"maxclass" : "comment",
									"numinlets" : 1,
									"numoutlets" : 0,
									"patching_rect" : [ 425.5, 279.0, 150.0, 34.0 ],
									"text" : "triggering next record~ stops the previous one"
								}

							}
, 							{
								"box" : 								{
									"id" : "obj-24",
									"maxclass" : "newobj",
									"numinlets" : 5,
									"numoutlets" : 5,
									"outlettype" : [ "", "", "", "", "" ],
									"patching_rect" : [ 253.5, 188.0, 143.0, 22.0 ],
									"text" : "route 1 2 3 4"
								}

							}
, 							{
								"box" : 								{
									"id" : "obj-25",
									"maxclass" : "newobj",
									"numinlets" : 5,
									"numoutlets" : 4,
									"outlettype" : [ "int", "", "", "int" ],
									"patching_rect" : [ 253.5, 153.0, 61.0, 22.0 ],
									"text" : "counter"
								}

							}
, 							{
								"box" : 								{
									"id" : "obj-9",
									"maxclass" : "newobj",
									"numinlets" : 3,
									"numoutlets" : 1,
									"outlettype" : [ "signal" ],
									"patching_rect" : [ 388.5, 378.0, 88.0, 22.0 ],
									"text" : "record~ voice4"
								}

							}
, 							{
								"box" : 								{
									"id" : "obj-8",
									"maxclass" : "newobj",
									"numinlets" : 3,
									"numoutlets" : 1,
									"outlettype" : [ "signal" ],
									"patching_rect" : [ 284.5, 378.0, 88.0, 22.0 ],
									"text" : "record~ voice3"
								}

							}
, 							{
								"box" : 								{
									"id" : "obj-7",
									"maxclass" : "newobj",
									"numinlets" : 3,
									"numoutlets" : 1,
									"outlettype" : [ "signal" ],
									"patching_rect" : [ 176.5, 378.0, 88.0, 22.0 ],
									"text" : "record~ voice2"
								}

							}
, 							{
								"box" : 								{
									"id" : "obj-6",
									"maxclass" : "newobj",
									"numinlets" : 3,
									"numoutlets" : 1,
									"outlettype" : [ "signal" ],
									"patching_rect" : [ 81.5, 378.0, 88.0, 22.0 ],
									"text" : "record~ voice1"
								}

							}
, 							{
								"box" : 								{
									"comment" : "",
									"id" : "obj-1",
									"index" : 1,
									"maxclass" : "inlet",
									"numinlets" : 0,
									"numoutlets" : 1,
									"outlettype" : [ "bang" ],
									"patching_rect" : [ 253.5, 73.0, 30.0, 30.0 ]
								}

							}
 ],
						"lines" : [ 							{
								"patchline" : 								{
									"destination" : [ "obj-3", 0 ],
									"source" : [ "obj-1", 0 ]
								}

							}
, 							{
								"patchline" : 								{
									"destination" : [ "obj-48", 0 ],
									"order" : 1,
									"source" : [ "obj-24", 1 ]
								}

							}
, 							{
								"patchline" : 								{
									"destination" : [ "obj-48", 0 ],
									"source" : [ "obj-24", 0 ]
								}

							}
, 							{
								"patchline" : 								{
									"destination" : [ "obj-55", 0 ],
									"order" : 1,
									"source" : [ "obj-24", 2 ]
								}

							}
, 							{
								"patchline" : 								{
									"destination" : [ "obj-55", 0 ],
									"order" : 0,
									"source" : [ "obj-24", 1 ]
								}

							}
, 							{
								"patchline" : 								{
									"destination" : [ "obj-56", 0 ],
									"order" : 1,
									"source" : [ "obj-24", 3 ]
								}

							}
, 							{
								"patchline" : 								{
									"destination" : [ "obj-56", 0 ],
									"order" : 0,
									"source" : [ "obj-24", 2 ]
								}

							}
, 							{
								"patchline" : 								{
									"destination" : [ "obj-57", 0 ],
									"order" : 0,
									"source" : [ "obj-24", 3 ]
								}

							}
, 							{
								"patchline" : 								{
									"destination" : [ "obj-24", 0 ],
									"source" : [ "obj-25", 0 ]
								}

							}
, 							{
								"patchline" : 								{
									"destination" : [ "obj-25", 0 ],
									"source" : [ "obj-3", 0 ]
								}

							}
, 							{
								"patchline" : 								{
									"destination" : [ "obj-6", 0 ],
									"source" : [ "obj-48", 0 ]
								}

							}
, 							{
								"patchline" : 								{
									"destination" : [ "obj-7", 0 ],
									"source" : [ "obj-55", 0 ]
								}

							}
, 							{
								"patchline" : 								{
									"destination" : [ "obj-8", 0 ],
									"source" : [ "obj-56", 0 ]
								}

							}
, 							{
								"patchline" : 								{
									"destination" : [ "obj-9", 0 ],
									"source" : [ "obj-57", 0 ]
								}

							}
, 							{
								"patchline" : 								{
									"destination" : [ "obj-51", 0 ],
									"source" : [ "obj-6", 0 ]
								}

							}
, 							{
								"patchline" : 								{
									"destination" : [ "obj-6", 0 ],
									"order" : 3,
									"source" : [ "obj-63", 0 ]
								}

							}
, 							{
								"patchline" : 								{
									"destination" : [ "obj-7", 0 ],
									"order" : 2,
									"source" : [ "obj-63", 0 ]
								}

							}
, 							{
								"patchline" : 								{
									"destination" : [ "obj-8", 0 ],
									"order" : 1,
									"source" : [ "obj-63", 0 ]
								}

							}
, 							{
								"patchline" : 								{
									"destination" : [ "obj-9", 0 ],
									"order" : 0,
									"source" : [ "obj-63", 0 ]
								}

							}
, 							{
								"patchline" : 								{
									"destination" : [ "obj-52", 0 ],
									"source" : [ "obj-7", 0 ]
								}

							}
, 							{
								"patchline" : 								{
									"destination" : [ "obj-53", 0 ],
									"source" : [ "obj-8", 0 ]
								}

							}
, 							{
								"patchline" : 								{
									"destination" : [ "obj-54", 0 ],
									"source" : [ "obj-9", 0 ]
								}

							}
 ]
					}
,
					"patching_rect" : [ 155.0, 227.0, 32.0, 24.0 ],
					"saved_object_attributes" : 					{
						"description" : "",
						"digest" : "",
						"globalpatchername" : "",
						"tags" : ""
					}
,
					"text" : "p rec"
				}

			}
, 			{
				"box" : 				{
					"comment" : "Button Inputs",
					"id" : "obj-31",
					"index" : 0,
					"maxclass" : "inlet",
					"numinlets" : 0,
					"numoutlets" : 1,
					"outlettype" : [ "" ],
					"patching_rect" : [ 157.0, 41.0, 30.0, 30.0 ]
				}

			}
, 			{
				"box" : 				{
					"comment" : "",
					"id" : "obj-30",
					"index" : 0,
					"maxclass" : "outlet",
					"numinlets" : 1,
					"numoutlets" : 0,
					"patching_rect" : [ 375.666666666666629, 717.0, 30.0, 30.0 ]
				}

			}
, 			{
				"box" : 				{
					"comment" : "",
					"id" : "obj-13",
					"index" : 0,
					"maxclass" : "outlet",
					"numinlets" : 1,
					"numoutlets" : 0,
					"patching_rect" : [ 340.5, 717.0, 30.0, 30.0 ]
				}

			}
, 			{
				"box" : 				{
					"comment" : "Signal Input",
					"id" : "obj-10",
					"index" : 0,
					"maxclass" : "inlet",
					"numinlets" : 0,
					"numoutlets" : 1,
					"outlettype" : [ "" ],
					"patching_rect" : [ 71.857142857142861, 41.0, 30.0, 30.0 ]
				}

			}
, 			{
				"box" : 				{
					"id" : "obj-28",
					"maxclass" : "gain~",
					"multichannelvariant" : 0,
					"numinlets" : 1,
					"numoutlets" : 2,
					"outlettype" : [ "signal", "" ],
					"parameter_enable" : 0,
					"patching_rect" : [ 375.666666666666629, 545.0, 22.0, 140.0 ],
					"presentation" : 1,
					"presentation_rect" : [ 538.5, 103.0, 22.0, 140.0 ]
				}

			}
, 			{
				"box" : 				{
					"id" : "obj-27",
					"maxclass" : "gain~",
					"multichannelvariant" : 0,
					"numinlets" : 1,
					"numoutlets" : 2,
					"outlettype" : [ "signal", "" ],
					"parameter_enable" : 0,
					"patching_rect" : [ 340.5, 545.0, 22.0, 140.0 ],
					"presentation" : 1,
					"presentation_rect" : [ 514.5, 103.0, 22.0, 140.0 ]
				}

			}
, 			{
				"box" : 				{
					"id" : "obj-12",
					"maxclass" : "button",
					"numinlets" : 1,
					"numoutlets" : 1,
					"outlettype" : [ "bang" ],
					"parameter_enable" : 0,
					"patching_rect" : [ 157.0, 129.0, 86.0, 86.0 ]
				}

			}
, 			{
				"box" : 				{
					"id" : "obj-88",
					"maxclass" : "slider",
					"min" : -60.0,
					"numinlets" : 1,
					"numoutlets" : 1,
					"outlettype" : [ "" ],
					"parameter_enable" : 0,
					"patching_rect" : [ 533.0, 356.0, 20.0, 140.0 ],
					"presentation" : 1,
					"presentation_rect" : [ 327.0, 525.0, 20.0, 140.0 ],
					"size" : 72.0
				}

			}
, 			{
				"box" : 				{
					"format" : 6,
					"id" : "obj-85",
					"maxclass" : "flonum",
					"numinlets" : 1,
					"numoutlets" : 2,
					"outlettype" : [ "", "bang" ],
					"parameter_enable" : 0,
					"patching_rect" : [ 453.714285714285779, 461.0, 50.0, 24.0 ],
					"presentation" : 1,
					"presentation_rect" : [ 265.714285714285779, 592.0, 50.0, 24.0 ]
				}

			}
, 			{
				"box" : 				{
					"format" : 6,
					"id" : "obj-83",
					"maxclass" : "flonum",
					"numinlets" : 1,
					"numoutlets" : 2,
					"outlettype" : [ "", "bang" ],
					"parameter_enable" : 0,
					"patching_rect" : [ 432.428571428571445, 420.0, 50.0, 24.0 ],
					"presentation" : 1,
					"presentation_rect" : [ 205.428571428571445, 592.0, 50.0, 24.0 ]
				}

			}
, 			{
				"box" : 				{
					"format" : 6,
					"id" : "obj-81",
					"maxclass" : "flonum",
					"numinlets" : 1,
					"numoutlets" : 2,
					"outlettype" : [ "", "bang" ],
					"parameter_enable" : 0,
					"patching_rect" : [ 411.14285714285711, 384.0, 50.0, 24.0 ],
					"presentation" : 1,
					"presentation_rect" : [ 146.14285714285711, 592.0, 50.0, 24.0 ]
				}

			}
, 			{
				"box" : 				{
					"format" : 6,
					"id" : "obj-79",
					"maxclass" : "flonum",
					"numinlets" : 1,
					"numoutlets" : 2,
					"outlettype" : [ "", "bang" ],
					"parameter_enable" : 0,
					"patching_rect" : [ 389.85714285714289, 353.0, 50.0, 24.0 ],
					"presentation" : 1,
					"presentation_rect" : [ 84.85714285714289, 592.0, 50.0, 24.0 ]
				}

			}
, 			{
				"box" : 				{
					"format" : 6,
					"id" : "obj-77",
					"maxclass" : "flonum",
					"numinlets" : 1,
					"numoutlets" : 2,
					"outlettype" : [ "", "bang" ],
					"parameter_enable" : 0,
					"patching_rect" : [ 368.571428571428555, 327.0, 50.0, 24.0 ],
					"presentation" : 1,
					"presentation_rect" : [ 26.0, 592.0, 50.0, 24.0 ]
				}

			}
, 			{
				"box" : 				{
					"id" : "obj-75",
					"maxclass" : "meter~",
					"numinlets" : 1,
					"numoutlets" : 1,
					"outlettype" : [ "float" ],
					"patching_rect" : [ 475.0, 545.0, 170.0, 26.0 ],
					"presentation" : 1,
					"presentation_rect" : [ 26.0, 639.0, 289.714285714285779, 26.0 ]
				}

			}
, 			{
				"box" : 				{
					"id" : "obj-73",
					"maxclass" : "newobj",
					"numinlets" : 8,
					"numoutlets" : 3,
					"outlettype" : [ "signal", "signal", "signal" ],
					"patching_rect" : [ 326.0, 496.0, 168.0, 24.0 ],
					"text" : "compressor.maxpat"
				}

			}
, 			{
				"box" : 				{
					"id" : "obj-72",
					"maxclass" : "slider",
					"numinlets" : 1,
					"numoutlets" : 1,
					"outlettype" : [ "" ],
					"parameter_enable" : 0,
					"patching_rect" : [ 475.0, 102.0, 20.0, 140.0 ],
					"presentation" : 1,
					"presentation_rect" : [ 327.0, 363.0, 20.0, 140.0 ]
				}

			}
, 			{
				"box" : 				{
					"format" : 6,
					"id" : "obj-69",
					"maxclass" : "flonum",
					"numinlets" : 1,
					"numoutlets" : 2,
					"outlettype" : [ "", "bang" ],
					"parameter_enable" : 0,
					"patching_rect" : [ 425.333333333333371, 206.0, 50.0, 24.0 ],
					"presentation" : 1,
					"presentation_rect" : [ 225.571428571428555, 424.0, 50.0, 24.0 ]
				}

			}
, 			{
				"box" : 				{
					"format" : 6,
					"id" : "obj-67",
					"maxclass" : "flonum",
					"numinlets" : 1,
					"numoutlets" : 2,
					"outlettype" : [ "", "bang" ],
					"parameter_enable" : 0,
					"patching_rect" : [ 375.666666666666629, 182.0, 50.0, 24.0 ],
					"presentation" : 1,
					"presentation_rect" : [ 151.5, 424.0, 50.0, 24.0 ]
				}

			}
, 			{
				"box" : 				{
					"id" : "obj-64",
					"maxclass" : "newobj",
					"numinlets" : 4,
					"numoutlets" : 2,
					"outlettype" : [ "signal", "signal" ],
					"patching_rect" : [ 326.0, 257.0, 168.0, 24.0 ],
					"text" : "reverb.maxpat"
				}

			}
, 			{
				"box" : 				{
					"id" : "obj-62",
					"maxclass" : "newobj",
					"numinlets" : 1,
					"numoutlets" : 0,
					"patching_rect" : [ 71.857142857142861, 81.0, 62.0, 24.0 ],
					"text" : "send~ rec"
				}

			}
, 			{
				"box" : 				{
					"buffername" : "voice4",
					"id" : "obj-40",
					"maxclass" : "waveform~",
					"numinlets" : 5,
					"numoutlets" : 6,
					"outlettype" : [ "float", "float", "float", "float", "list", "" ],
					"patching_rect" : [ 872.0, 481.0, 256.0, 64.0 ],
					"presentation" : 1,
					"presentation_rect" : [ 26.0, 256.0, 256.0, 64.0 ]
				}

			}
, 			{
				"box" : 				{
					"buffername" : "voice3",
					"id" : "obj-39",
					"maxclass" : "waveform~",
					"numinlets" : 5,
					"numoutlets" : 6,
					"outlettype" : [ "float", "float", "float", "float", "list", "" ],
					"patching_rect" : [ 872.0, 381.0, 256.0, 64.0 ],
					"presentation" : 1,
					"presentation_rect" : [ 26.0, 180.0, 256.0, 64.0 ]
				}

			}
, 			{
				"box" : 				{
					"buffername" : "voice2",
					"id" : "obj-38",
					"maxclass" : "waveform~",
					"numinlets" : 5,
					"numoutlets" : 6,
					"outlettype" : [ "float", "float", "float", "float", "list", "" ],
					"patching_rect" : [ 872.0, 261.0, 256.0, 64.0 ],
					"presentation" : 1,
					"presentation_rect" : [ 26.0, 103.0, 256.0, 64.0 ]
				}

			}
, 			{
				"box" : 				{
					"buffername" : "voice1",
					"id" : "obj-36",
					"maxclass" : "waveform~",
					"numinlets" : 5,
					"numoutlets" : 6,
					"outlettype" : [ "float", "float", "float", "float", "list", "" ],
					"patching_rect" : [ 872.0, 147.0, 256.0, 64.0 ],
					"presentation" : 1,
					"presentation_rect" : [ 26.0, 20.0, 256.0, 64.0 ]
				}

			}
, 			{
				"box" : 				{
					"id" : "obj-18",
					"maxclass" : "newobj",
					"numinlets" : 1,
					"numoutlets" : 1,
					"outlettype" : [ "signal" ],
					"patching_rect" : [ 326.0, 140.0, 74.0, 24.0 ],
					"text" : "receive~ out"
				}

			}
, 			{
				"box" : 				{
					"id" : "obj-5",
					"maxclass" : "newobj",
					"numinlets" : 1,
					"numoutlets" : 2,
					"outlettype" : [ "float", "bang" ],
					"patching_rect" : [ 872.0, 452.0, 121.0, 24.0 ],
					"text" : "buffer~ voice4 85000"
				}

			}
, 			{
				"box" : 				{
					"id" : "obj-4",
					"maxclass" : "newobj",
					"numinlets" : 1,
					"numoutlets" : 2,
					"outlettype" : [ "float", "bang" ],
					"patching_rect" : [ 872.0, 352.0, 121.0, 24.0 ],
					"text" : "buffer~ voice3 85000"
				}

			}
, 			{
				"box" : 				{
					"id" : "obj-3",
					"maxclass" : "newobj",
					"numinlets" : 1,
					"numoutlets" : 2,
					"outlettype" : [ "float", "bang" ],
					"patching_rect" : [ 872.0, 235.0, 121.0, 24.0 ],
					"text" : "buffer~ voice2 85000"
				}

			}
, 			{
				"box" : 				{
					"id" : "obj-2",
					"maxclass" : "newobj",
					"numinlets" : 1,
					"numoutlets" : 2,
					"outlettype" : [ "float", "bang" ],
					"patching_rect" : [ 872.0, 120.0, 121.0, 24.0 ],
					"text" : "buffer~ voice1 85000"
				}

			}
 ],
		"lines" : [ 			{
				"patchline" : 				{
					"destination" : [ "obj-27", 0 ],
					"source" : [ "obj-1", 0 ]
				}

			}
, 			{
				"patchline" : 				{
					"destination" : [ "obj-62", 0 ],
					"source" : [ "obj-10", 0 ]
				}

			}
, 			{
				"patchline" : 				{
					"destination" : [ "obj-45", 0 ],
					"order" : 1,
					"source" : [ "obj-12", 0 ]
				}

			}
, 			{
				"patchline" : 				{
					"destination" : [ "obj-46", 0 ],
					"order" : 0,
					"source" : [ "obj-12", 0 ]
				}

			}
, 			{
				"patchline" : 				{
					"destination" : [ "obj-64", 0 ],
					"source" : [ "obj-18", 0 ]
				}

			}
, 			{
				"patchline" : 				{
					"destination" : [ "obj-13", 0 ],
					"source" : [ "obj-27", 0 ]
				}

			}
, 			{
				"patchline" : 				{
					"destination" : [ "obj-28", 0 ],
					"source" : [ "obj-27", 1 ]
				}

			}
, 			{
				"patchline" : 				{
					"destination" : [ "obj-30", 0 ],
					"source" : [ "obj-28", 0 ]
				}

			}
, 			{
				"patchline" : 				{
					"destination" : [ "obj-12", 0 ],
					"source" : [ "obj-31", 0 ]
				}

			}
, 			{
				"patchline" : 				{
					"destination" : [ "obj-53", 0 ],
					"source" : [ "obj-47", 0 ]
				}

			}
, 			{
				"patchline" : 				{
					"destination" : [ "obj-67", 0 ],
					"source" : [ "obj-49", 0 ]
				}

			}
, 			{
				"patchline" : 				{
					"destination" : [ "obj-69", 0 ],
					"source" : [ "obj-50", 0 ]
				}

			}
, 			{
				"patchline" : 				{
					"destination" : [ "obj-72", 0 ],
					"order" : 1,
					"source" : [ "obj-52", 0 ]
				}

			}
, 			{
				"patchline" : 				{
					"destination" : [ "obj-88", 0 ],
					"order" : 0,
					"source" : [ "obj-52", 0 ]
				}

			}
, 			{
				"patchline" : 				{
					"destination" : [ "obj-51", 0 ],
					"source" : [ "obj-53", 0 ]
				}

			}
, 			{
				"patchline" : 				{
					"destination" : [ "obj-77", 0 ],
					"source" : [ "obj-54", 0 ]
				}

			}
, 			{
				"patchline" : 				{
					"destination" : [ "obj-79", 0 ],
					"source" : [ "obj-56", 0 ]
				}

			}
, 			{
				"patchline" : 				{
					"destination" : [ "obj-67", 0 ],
					"order" : 1,
					"source" : [ "obj-58", 0 ]
				}

			}
, 			{
				"patchline" : 				{
					"destination" : [ "obj-81", 0 ],
					"order" : 0,
					"source" : [ "obj-58", 0 ]
				}

			}
, 			{
				"patchline" : 				{
					"destination" : [ "obj-83", 0 ],
					"source" : [ "obj-60", 0 ]
				}

			}
, 			{
				"patchline" : 				{
					"destination" : [ "obj-69", 0 ],
					"order" : 1,
					"source" : [ "obj-61", 0 ]
				}

			}
, 			{
				"patchline" : 				{
					"destination" : [ "obj-85", 0 ],
					"order" : 0,
					"source" : [ "obj-61", 0 ]
				}

			}
, 			{
				"patchline" : 				{
					"destination" : [ "obj-54", 0 ],
					"order" : 4,
					"source" : [ "obj-63", 0 ]
				}

			}
, 			{
				"patchline" : 				{
					"destination" : [ "obj-56", 0 ],
					"order" : 3,
					"source" : [ "obj-63", 0 ]
				}

			}
, 			{
				"patchline" : 				{
					"destination" : [ "obj-58", 0 ],
					"order" : 2,
					"source" : [ "obj-63", 0 ]
				}

			}
, 			{
				"patchline" : 				{
					"destination" : [ "obj-60", 0 ],
					"order" : 1,
					"source" : [ "obj-63", 0 ]
				}

			}
, 			{
				"patchline" : 				{
					"destination" : [ "obj-61", 0 ],
					"order" : 0,
					"source" : [ "obj-63", 0 ]
				}

			}
, 			{
				"patchline" : 				{
					"destination" : [ "obj-73", 1 ],
					"source" : [ "obj-64", 1 ]
				}

			}
, 			{
				"patchline" : 				{
					"destination" : [ "obj-73", 0 ],
					"source" : [ "obj-64", 0 ]
				}

			}
, 			{
				"patchline" : 				{
					"destination" : [ "obj-64", 1 ],
					"source" : [ "obj-67", 0 ]
				}

			}
, 			{
				"patchline" : 				{
					"destination" : [ "obj-64", 2 ],
					"source" : [ "obj-69", 0 ]
				}

			}
, 			{
				"patchline" : 				{
					"destination" : [ "obj-64", 3 ],
					"source" : [ "obj-72", 0 ]
				}

			}
, 			{
				"patchline" : 				{
					"destination" : [ "obj-27", 0 ],
					"source" : [ "obj-73", 0 ]
				}

			}
, 			{
				"patchline" : 				{
					"destination" : [ "obj-28", 0 ],
					"source" : [ "obj-73", 1 ]
				}

			}
, 			{
				"patchline" : 				{
					"destination" : [ "obj-75", 0 ],
					"source" : [ "obj-73", 2 ]
				}

			}
, 			{
				"patchline" : 				{
					"destination" : [ "obj-73", 2 ],
					"source" : [ "obj-77", 0 ]
				}

			}
, 			{
				"patchline" : 				{
					"destination" : [ "obj-73", 3 ],
					"source" : [ "obj-79", 0 ]
				}

			}
, 			{
				"patchline" : 				{
					"destination" : [ "obj-73", 4 ],
					"source" : [ "obj-81", 0 ]
				}

			}
, 			{
				"patchline" : 				{
					"destination" : [ "obj-73", 5 ],
					"source" : [ "obj-83", 0 ]
				}

			}
, 			{
				"patchline" : 				{
					"destination" : [ "obj-73", 6 ],
					"source" : [ "obj-85", 0 ]
				}

			}
, 			{
				"patchline" : 				{
					"destination" : [ "obj-73", 7 ],
					"source" : [ "obj-88", 0 ]
				}

			}
 ],
		"dependency_cache" : [ 			{
				"name" : "compressor.maxpat",
				"bootpath" : "~/Documents/GitHub/Cyberinet/Lecture Recital",
				"patcherrelativepath" : "..",
				"type" : "JSON",
				"implicit" : 1
			}
, 			{
				"name" : "reverb.maxpat",
				"bootpath" : "~/Documents/GitHub/Cyberinet/Lecture Recital",
				"patcherrelativepath" : "..",
				"type" : "JSON",
				"implicit" : 1
			}
 ],
		"autosave" : 0,
		"bgcolor" : [ 0.0, 1.0, 0.443137254901961, 1.0 ]
	}

}
