{
	"patcher" : 	{
		"fileversion" : 1,
		"appversion" : 		{
			"major" : 8,
			"minor" : 5,
			"revision" : 4,
			"architecture" : "x64",
			"modernui" : 1
		}
,
		"classnamespace" : "box",
		"rect" : [ 59.0, 107.0, 898.0, 480.0 ],
		"bglocked" : 0,
		"openinpresentation" : 0,
		"default_fontsize" : 12.0,
		"default_fontface" : 0,
		"default_fontname" : "Arial",
		"gridonopen" : 1,
		"gridsize" : [ 15.0, 15.0 ],
		"gridsnaponopen" : 1,
		"objectsnaponopen" : 1,
		"statusbarvisible" : 2,
		"toolbarvisible" : 1,
		"lefttoolbarpinned" : 0,
		"toptoolbarpinned" : 0,
		"righttoolbarpinned" : 0,
		"bottomtoolbarpinned" : 0,
		"toolbars_unpinned_last_save" : 0,
		"tallnewobj" : 0,
		"boxanimatetime" : 200,
		"enablehscroll" : 1,
		"enablevscroll" : 1,
		"devicewidth" : 0.0,
		"description" : "",
		"digest" : "",
		"tags" : "",
		"style" : "",
		"subpatcher_template" : "",
		"assistshowspatchername" : 0,
		"boxes" : [ 			{
				"box" : 				{
					"bubble" : 1,
					"id" : "obj-21",
					"linecount" : 2,
					"maxclass" : "comment",
					"numinlets" : 1,
					"numoutlets" : 0,
					"patching_rect" : [ 181.0, 367.0, 97.0, 38.0 ],
					"text" : "explore with presets!"
				}

			}
, 			{
				"box" : 				{
					"id" : "obj-19",
					"maxclass" : "preset",
					"numinlets" : 1,
					"numoutlets" : 5,
					"outlettype" : [ "preset", "int", "preset", "int", "" ],
					"patching_rect" : [ 121.0, 375.0, 54.0, 21.0 ],
					"preset_data" : [ 						{
							"number" : 1,
							"data" : [ 5, "obj-4", "playlist~", "preset_count", 1, 7, "obj-4", "playlist~", "preset_clipstate", 1, "filekind", "audiofile", 7, "obj-4", "playlist~", "preset_clipstate", 1, "absolutepath", "cherokee.aif", 7, "obj-4", "playlist~", "preset_clipstate", 1, "filename", "cherokee.aif", 7, "obj-4", "playlist~", "preset_clipstate", 1, "loop", 0, 8, "obj-4", "playlist~", "preset_clipstate", 1, "selection", 0.0, 1.0, 7, "obj-4", "playlist~", "preset_clipstate", 1, "id", "u724002876", 4, "obj-4", "playlist~", "preset_execute", 5, "obj-6", "slider", "float", 0.5, 5, "obj-8", "slider", "float", 0.5, 5, "obj-10", "slider", "float", 0.899999976158142, 5, "obj-12", "flonum", "float", 0.5, 5, "obj-14", "flonum", "float", 0.899999976158142, 5, "obj-16", "flonum", "float", 0.5 ]
						}
, 						{
							"number" : 2,
							"data" : [ 5, "obj-4", "playlist~", "preset_count", 1, 7, "obj-4", "playlist~", "preset_clipstate", 1, "filekind", "audiofile", 7, "obj-4", "playlist~", "preset_clipstate", 1, "absolutepath", "cherokee.aif", 7, "obj-4", "playlist~", "preset_clipstate", 1, "filename", "cherokee.aif", 7, "obj-4", "playlist~", "preset_clipstate", 1, "loop", 1, 8, "obj-4", "playlist~", "preset_clipstate", 1, "selection", 0.0, 1.0, 7, "obj-4", "playlist~", "preset_clipstate", 1, "id", "u724002876", 7, "obj-4", "playlist~", "preset_content", 1, "loop", 1, 4, "obj-4", "playlist~", "preset_execute", 5, "obj-6", "slider", "float", 0.096650123596191, 5, "obj-8", "slider", "float", 0.043548386543989, 5, "obj-10", "slider", "float", 0.77791565656662, 5, "obj-12", "flonum", "float", 0.096650123596191, 5, "obj-14", "flonum", "float", 0.77791565656662, 5, "obj-16", "flonum", "float", 0.043548386543989 ]
						}
, 						{
							"number" : 3,
							"data" : [ 5, "obj-4", "playlist~", "preset_count", 1, 7, "obj-4", "playlist~", "preset_clipstate", 1, "filekind", "audiofile", 7, "obj-4", "playlist~", "preset_clipstate", 1, "absolutepath", "cherokee.aif", 7, "obj-4", "playlist~", "preset_clipstate", 1, "filename", "cherokee.aif", 7, "obj-4", "playlist~", "preset_clipstate", 1, "loop", 1, 8, "obj-4", "playlist~", "preset_clipstate", 1, "selection", 0.0, 1.0, 7, "obj-4", "playlist~", "preset_clipstate", 1, "id", "u724002876", 7, "obj-4", "playlist~", "preset_content", 1, "loop", 1, 4, "obj-4", "playlist~", "preset_execute", 5, "obj-6", "slider", "float", 0.915384590625763, 5, "obj-8", "slider", "float", 0.901861071586609, 5, "obj-10", "slider", "float", 0.77791565656662, 5, "obj-12", "flonum", "float", 0.915384590625763, 5, "obj-14", "flonum", "float", 0.77791565656662, 5, "obj-16", "flonum", "float", 0.901861071586609 ]
						}
, 						{
							"number" : 4,
							"data" : [ 5, "obj-4", "playlist~", "preset_count", 1, 7, "obj-4", "playlist~", "preset_clipstate", 1, "filekind", "audiofile", 7, "obj-4", "playlist~", "preset_clipstate", 1, "absolutepath", "cherokee.aif", 7, "obj-4", "playlist~", "preset_clipstate", 1, "filename", "cherokee.aif", 7, "obj-4", "playlist~", "preset_clipstate", 1, "loop", 1, 8, "obj-4", "playlist~", "preset_clipstate", 1, "selection", 0.0, 1.0, 7, "obj-4", "playlist~", "preset_clipstate", 1, "id", "u724002876", 7, "obj-4", "playlist~", "preset_content", 1, "loop", 1, 4, "obj-4", "playlist~", "preset_execute", 5, "obj-6", "slider", "float", 0.915384590625763, 5, "obj-8", "slider", "float", 0.040570721030235, 5, "obj-10", "slider", "float", 0.77791565656662, 5, "obj-12", "flonum", "float", 0.915384590625763, 5, "obj-14", "flonum", "float", 0.77791565656662, 5, "obj-16", "flonum", "float", 0.040570721030235 ]
						}
 ]
				}

			}
, 			{
				"box" : 				{
					"id" : "obj-11",
					"linecount" : 3,
					"maxclass" : "newobj",
					"numinlets" : 1,
					"numoutlets" : 1,
					"outlettype" : [ "" ],
					"patching_rect" : [ 783.0, 134.5, 95.0, 50.0 ],
					"saved_object_attributes" : 					{
						"client_rect" : [ 4, 44, 358, 172 ],
						"parameter_enable" : 0,
						"parameter_mappable" : 0,
						"storage_rect" : [ 583, 69, 1034, 197 ]
					}
,
					"text" : "pattrstorage CNET.monoReverb~",
					"varname" : "CNET.monoReverb~"
				}

			}
, 			{
				"box" : 				{
					"id" : "obj-7",
					"maxclass" : "newobj",
					"numinlets" : 1,
					"numoutlets" : 4,
					"outlettype" : [ "", "", "", "" ],
					"patching_rect" : [ 810.0, 109.0, 56.0, 22.0 ],
					"restore" : 					{
						"revDamp" : [ 0.5 ],
						"revOutGain" : [ 0.9 ],
						"revSize" : [ 0.5 ]
					}
,
					"text" : "autopattr",
					"varname" : "u466010762"
				}

			}
, 			{
				"box" : 				{
					"id" : "obj-17",
					"maxclass" : "message",
					"numinlets" : 2,
					"numoutlets" : 1,
					"outlettype" : [ "" ],
					"patching_rect" : [ 742.0, 130.0, 29.5, 22.0 ],
					"text" : "0.9"
				}

			}
, 			{
				"box" : 				{
					"id" : "obj-13",
					"maxclass" : "message",
					"numinlets" : 2,
					"numoutlets" : 1,
					"outlettype" : [ "" ],
					"patching_rect" : [ 701.0, 130.0, 29.5, 22.0 ],
					"text" : "0.5"
				}

			}
, 			{
				"box" : 				{
					"id" : "obj-9",
					"maxclass" : "newobj",
					"numinlets" : 1,
					"numoutlets" : 1,
					"outlettype" : [ "bang" ],
					"patching_rect" : [ 701.0, 100.0, 58.0, 22.0 ],
					"text" : "loadbang"
				}

			}
, 			{
				"box" : 				{
					"bubble" : 1,
					"bubbleside" : 0,
					"id" : "obj-33",
					"linecount" : 4,
					"maxclass" : "comment",
					"numinlets" : 1,
					"numoutlets" : 0,
					"patching_rect" : [ 689.0, 375.0, 169.0, 81.0 ],
					"presentation" : 1,
					"presentation_linecount" : 4,
					"presentation_rect" : [ 690.0, 354.0, 169.0, 81.0 ],
					"text" : "5. Set output volume. A value of 0 will completly mute any signal from the object. Defaults ot 0.9",
					"textjustification" : 1
				}

			}
, 			{
				"box" : 				{
					"bubble" : 1,
					"bubbleside" : 0,
					"id" : "obj-31",
					"linecount" : 5,
					"maxclass" : "comment",
					"numinlets" : 1,
					"numoutlets" : 0,
					"patching_rect" : [ 476.0, 375.0, 146.0, 94.0 ],
					"presentation" : 1,
					"presentation_linecount" : 5,
					"presentation_rect" : [ 477.0, 354.0, 146.0, 94.0 ],
					"text" : "4. Set damping frequency. Higher values absorb more high frequencies. Defaults to 0.5",
					"textjustification" : 1
				}

			}
, 			{
				"box" : 				{
					"bubble" : 1,
					"bubbleside" : 0,
					"id" : "obj-29",
					"linecount" : 4,
					"maxclass" : "comment",
					"numinlets" : 1,
					"numoutlets" : 0,
					"patching_rect" : [ 298.0, 375.0, 154.0, 81.0 ],
					"presentation" : 1,
					"presentation_linecount" : 4,
					"presentation_rect" : [ 299.0, 354.0, 154.0, 81.0 ],
					"text" : "3. set room size. Larger values make a more prominant effect. Defaults to 0.5",
					"textjustification" : 1
				}

			}
, 			{
				"box" : 				{
					"bubble" : 1,
					"bubbleside" : 0,
					"id" : "obj-27",
					"maxclass" : "comment",
					"numinlets" : 1,
					"numoutlets" : 0,
					"patching_rect" : [ 104.0, 218.0, 150.0, 39.0 ],
					"presentation" : 1,
					"presentation_rect" : [ 105.0, 197.0, 150.0, 39.0 ],
					"text" : "2. begin playback",
					"textjustification" : 1
				}

			}
, 			{
				"box" : 				{
					"bubble" : 1,
					"bubbleside" : 0,
					"id" : "obj-25",
					"maxclass" : "comment",
					"numinlets" : 1,
					"numoutlets" : 0,
					"patching_rect" : [ 25.0, 428.5, 150.0, 39.0 ],
					"presentation" : 1,
					"presentation_rect" : [ 26.0, 377.5, 150.0, 39.0 ],
					"text" : "1. Begin DSP",
					"textjustification" : 1
				}

			}
, 			{
				"box" : 				{
					"format" : 6,
					"id" : "obj-16",
					"maxclass" : "flonum",
					"numinlets" : 1,
					"numoutlets" : 2,
					"outlettype" : [ "", "bang" ],
					"parameter_enable" : 0,
					"patching_rect" : [ 526.0, 331.0, 50.0, 22.0 ],
					"presentation" : 1,
					"presentation_rect" : [ 527.0, 310.0, 50.0, 22.0 ]
				}

			}
, 			{
				"box" : 				{
					"format" : 6,
					"id" : "obj-14",
					"maxclass" : "flonum",
					"numinlets" : 1,
					"numoutlets" : 2,
					"outlettype" : [ "", "bang" ],
					"parameter_enable" : 0,
					"patching_rect" : [ 739.0, 331.0, 50.0, 22.0 ],
					"presentation" : 1,
					"presentation_rect" : [ 740.0, 310.0, 50.0, 22.0 ]
				}

			}
, 			{
				"box" : 				{
					"format" : 6,
					"id" : "obj-12",
					"maxclass" : "flonum",
					"numinlets" : 1,
					"numoutlets" : 2,
					"outlettype" : [ "", "bang" ],
					"parameter_enable" : 0,
					"patching_rect" : [ 363.0, 331.0, 50.0, 22.0 ],
					"presentation" : 1,
					"presentation_rect" : [ 364.0, 310.0, 50.0, 22.0 ]
				}

			}
, 			{
				"box" : 				{
					"floatoutput" : 1,
					"id" : "obj-10",
					"maxclass" : "slider",
					"numinlets" : 1,
					"numoutlets" : 1,
					"outlettype" : [ "" ],
					"parameter_enable" : 0,
					"patching_rect" : [ 739.0, 178.0, 20.0, 140.0 ],
					"presentation" : 1,
					"presentation_rect" : [ 740.0, 157.0, 20.0, 140.0 ],
					"size" : 1.0,
					"varname" : "revOutGain"
				}

			}
, 			{
				"box" : 				{
					"floatoutput" : 1,
					"id" : "obj-8",
					"maxclass" : "slider",
					"numinlets" : 1,
					"numoutlets" : 1,
					"outlettype" : [ "" ],
					"parameter_enable" : 0,
					"patching_rect" : [ 526.0, 178.0, 20.0, 140.0 ],
					"presentation" : 1,
					"presentation_rect" : [ 527.0, 157.0, 20.0, 140.0 ],
					"size" : 1.0,
					"varname" : "revDamp"
				}

			}
, 			{
				"box" : 				{
					"floatoutput" : 1,
					"id" : "obj-6",
					"maxclass" : "slider",
					"numinlets" : 1,
					"numoutlets" : 1,
					"outlettype" : [ "" ],
					"parameter_enable" : 0,
					"patching_rect" : [ 363.0, 178.0, 20.0, 140.0 ],
					"presentation" : 1,
					"presentation_rect" : [ 364.0, 157.0, 20.0, 140.0 ],
					"size" : 1.0,
					"varname" : "revSize"
				}

			}
, 			{
				"box" : 				{
					"basictuning" : 440,
					"data" : 					{
						"clips" : [ 							{
								"absolutepath" : "cherokee.aif",
								"filename" : "cherokee.aif",
								"filekind" : "audiofile",
								"id" : "u724002876",
								"selection" : [ 0.0, 1.0 ],
								"loop" : 1,
								"content_state" : 								{
									"loop" : 1
								}

							}
 ]
					}
,
					"followglobaltempo" : 0,
					"formantcorrection" : 0,
					"id" : "obj-4",
					"maxclass" : "playlist~",
					"mode" : "basic",
					"numinlets" : 1,
					"numoutlets" : 5,
					"originallength" : [ 0.0, "ticks" ],
					"originaltempo" : 120.0,
					"outlettype" : [ "signal", "signal", "signal", "", "dictionary" ],
					"parameter_enable" : 0,
					"patching_rect" : [ 63.0, 178.0, 150.0, 30.0 ],
					"pitchcorrection" : 0,
					"presentation" : 1,
					"presentation_rect" : [ 64.0, 157.0, 150.0, 30.0 ],
					"quality" : "basic",
					"timestretch" : [ 0 ]
				}

			}
, 			{
				"box" : 				{
					"id" : "obj-2",
					"maxclass" : "ezdac~",
					"numinlets" : 2,
					"numoutlets" : 0,
					"patching_rect" : [ 63.0, 375.0, 45.0, 45.0 ],
					"presentation" : 1,
					"presentation_rect" : [ 64.0, 324.0, 45.0, 45.0 ]
				}

			}
, 			{
				"box" : 				{
					"id" : "obj-35",
					"linecount" : 4,
					"maxclass" : "comment",
					"numinlets" : 1,
					"numoutlets" : 0,
					"patching_rect" : [ 635.0, 16.0, 250.0, 62.0 ],
					"presentation" : 1,
					"presentation_linecount" : 6,
					"presentation_rect" : [ 620.0, 15.0, 208.0, 89.0 ],
					"text" : "Patch by Matthew A. Bardin [05/2023]\n\nFor more information on the Cyberinet, visit matthewbardin.com/cyberinet"
				}

			}
, 			{
				"box" : 				{
					"id" : "obj-5",
					"linecount" : 8,
					"maxclass" : "comment",
					"numinlets" : 1,
					"numoutlets" : 0,
					"patching_rect" : [ 5.0, 56.0, 626.0, 117.0 ],
					"text" : "Version 1.3\n\nThis object functions idetnitally to CNET.reverb~, except that it outputs a single mono signal instead of stereo. \n\nCNET.monoReverb is a simple reverb effect designed to easily interface with the Cyberinet. It is based on the Schroeder and John Cowning Reverbs developed by CCRMA. It is internally comprised of three All Pass filters and four feedback delays. Each control inlet receives float values in between 0 and 1. Room Size and Damping default to 0.5, and the output volume defaults to 0.9."
				}

			}
, 			{
				"box" : 				{
					"fontsize" : 20.0,
					"id" : "obj-3",
					"maxclass" : "comment",
					"numinlets" : 1,
					"numoutlets" : 0,
					"patching_rect" : [ 6.0, 16.0, 243.0, 29.0 ],
					"text" : "CNET.monoReverb~"
				}

			}
, 			{
				"box" : 				{
					"id" : "obj-1",
					"maxclass" : "newobj",
					"numinlets" : 4,
					"numoutlets" : 1,
					"outlettype" : [ "signal" ],
					"patching_rect" : [ 28.0, 316.0, 119.0, 22.0 ],
					"text" : "CNET.monoReverb~"
				}

			}
 ],
		"lines" : [ 			{
				"patchline" : 				{
					"destination" : [ "obj-2", 0 ],
					"midpoints" : [ 37.5, 360.0, 72.5, 360.0 ],
					"source" : [ "obj-1", 0 ]
				}

			}
, 			{
				"patchline" : 				{
					"destination" : [ "obj-14", 0 ],
					"midpoints" : [ 748.5, 321.0, 748.5, 321.0 ],
					"source" : [ "obj-10", 0 ]
				}

			}
, 			{
				"patchline" : 				{
					"destination" : [ "obj-1", 1 ],
					"midpoints" : [ 372.5, 354.0, 159.0, 354.0, 159.0, 303.0, 70.833333333333343, 303.0 ],
					"source" : [ "obj-12", 0 ]
				}

			}
, 			{
				"patchline" : 				{
					"destination" : [ "obj-6", 0 ],
					"midpoints" : [ 710.5, 183.0, 546.0, 183.0, 546.0, 174.0, 372.5, 174.0 ],
					"order" : 1,
					"source" : [ "obj-13", 0 ]
				}

			}
, 			{
				"patchline" : 				{
					"destination" : [ "obj-8", 0 ],
					"midpoints" : [ 710.5, 183.0, 546.0, 183.0, 546.0, 174.0, 535.5, 174.0 ],
					"order" : 0,
					"source" : [ "obj-13", 0 ]
				}

			}
, 			{
				"patchline" : 				{
					"destination" : [ "obj-1", 3 ],
					"midpoints" : [ 748.5, 354.0, 588.0, 354.0, 588.0, 318.0, 159.0, 318.0, 159.0, 312.0, 137.5, 312.0 ],
					"source" : [ "obj-14", 0 ]
				}

			}
, 			{
				"patchline" : 				{
					"destination" : [ "obj-1", 2 ],
					"midpoints" : [ 535.5, 354.0, 423.0, 354.0, 423.0, 318.0, 159.0, 318.0, 159.0, 303.0, 104.166666666666671, 303.0 ],
					"source" : [ "obj-16", 0 ]
				}

			}
, 			{
				"patchline" : 				{
					"destination" : [ "obj-10", 0 ],
					"midpoints" : [ 751.5, 174.0, 748.5, 174.0 ],
					"source" : [ "obj-17", 0 ]
				}

			}
, 			{
				"patchline" : 				{
					"destination" : [ "obj-1", 0 ],
					"midpoints" : [ 72.5, 303.0, 37.5, 303.0 ],
					"source" : [ "obj-4", 0 ]
				}

			}
, 			{
				"patchline" : 				{
					"destination" : [ "obj-12", 0 ],
					"midpoints" : [ 372.5, 321.0, 372.5, 321.0 ],
					"source" : [ "obj-6", 0 ]
				}

			}
, 			{
				"patchline" : 				{
					"destination" : [ "obj-16", 0 ],
					"midpoints" : [ 535.5, 321.0, 535.5, 321.0 ],
					"source" : [ "obj-8", 0 ]
				}

			}
, 			{
				"patchline" : 				{
					"destination" : [ "obj-13", 0 ],
					"midpoints" : [ 710.5, 123.0, 710.5, 123.0 ],
					"order" : 1,
					"source" : [ "obj-9", 0 ]
				}

			}
, 			{
				"patchline" : 				{
					"destination" : [ "obj-17", 0 ],
					"midpoints" : [ 710.5, 123.0, 751.5, 123.0 ],
					"order" : 0,
					"source" : [ "obj-9", 0 ]
				}

			}
 ],
		"dependency_cache" : [ 			{
				"name" : "CNET.monoReverb~.maxpat",
				"bootpath" : "~/Documents/GitHub/Cyberinet/V1.3/Max Patches/CNET",
				"patcherrelativepath" : "..",
				"type" : "JSON",
				"implicit" : 1
			}
, 			{
				"name" : "cherokee.aif",
				"bootpath" : "C74:/media/msp",
				"type" : "AIFF",
				"implicit" : 1
			}
 ],
		"autosave" : 0,
		"bgcolor" : [ 0.0, 1.0, 0.443137254901961, 1.0 ]
	}

}
