{
	"patcher" : 	{
		"fileversion" : 1,
		"appversion" : 		{
			"major" : 8,
			"minor" : 5,
			"revision" : 4,
			"architecture" : "x64",
			"modernui" : 1
		}
,
		"classnamespace" : "box",
		"rect" : [ 150.0, 111.0, 796.0, 722.0 ],
		"bglocked" : 0,
		"openinpresentation" : 0,
		"default_fontsize" : 12.0,
		"default_fontface" : 0,
		"default_fontname" : "Arial",
		"gridonopen" : 1,
		"gridsize" : [ 15.0, 15.0 ],
		"gridsnaponopen" : 1,
		"objectsnaponopen" : 1,
		"statusbarvisible" : 2,
		"toolbarvisible" : 1,
		"lefttoolbarpinned" : 0,
		"toptoolbarpinned" : 0,
		"righttoolbarpinned" : 0,
		"bottomtoolbarpinned" : 0,
		"toolbars_unpinned_last_save" : 0,
		"tallnewobj" : 0,
		"boxanimatetime" : 200,
		"enablehscroll" : 1,
		"enablevscroll" : 1,
		"devicewidth" : 0.0,
		"description" : "",
		"digest" : "",
		"tags" : "",
		"style" : "",
		"subpatcher_template" : "",
		"assistshowspatchername" : 0,
		"boxes" : [ 			{
				"box" : 				{
					"bubble" : 1,
					"id" : "obj-11",
					"linecount" : 2,
					"maxclass" : "comment",
					"numinlets" : 1,
					"numoutlets" : 0,
					"patching_rect" : [ 84.0, 587.0, 150.0, 38.0 ],
					"text" : "Experiment with presets!"
				}

			}
, 			{
				"box" : 				{
					"id" : "obj-7",
					"maxclass" : "preset",
					"numinlets" : 1,
					"numoutlets" : 5,
					"outlettype" : [ "preset", "int", "preset", "int", "" ],
					"patching_rect" : [ 31.0, 587.0, 43.0, 31.0 ],
					"preset_data" : [ 						{
							"number" : 1,
							"data" : [ 5, "obj-4", "playlist~", "preset_count", 1, 7, "obj-4", "playlist~", "preset_clipstate", 1, "filekind", "audiofile", 7, "obj-4", "playlist~", "preset_clipstate", 1, "absolutepath", "cherokee.aif", 7, "obj-4", "playlist~", "preset_clipstate", 1, "filename", "cherokee.aif", 7, "obj-4", "playlist~", "preset_clipstate", 1, "loop", 1, 8, "obj-4", "playlist~", "preset_clipstate", 1, "selection", 0.0, 1.0, 7, "obj-4", "playlist~", "preset_clipstate", 1, "id", "u389001737", 7, "obj-4", "playlist~", "preset_content", 1, "loop", 1, 4, "obj-4", "playlist~", "preset_execute", 5, "obj-6", "slider", "float", 1.0, 5, "obj-8", "slider", "float", 0.400000005960464, 5, "obj-10", "slider", "float", 0.5, 5, "obj-12", "slider", "float", 0.5, 5, "obj-14", "slider", "float", 1.0, 5, "obj-16", "flonum", "float", 1.0, 5, "obj-18", "flonum", "float", 0.400000005960464, 5, "obj-20", "flonum", "float", 0.5, 5, "obj-22", "flonum", "float", 1.0, 5, "obj-24", "flonum", "float", 0.5 ]
						}
, 						{
							"number" : 2,
							"data" : [ 5, "obj-4", "playlist~", "preset_count", 1, 7, "obj-4", "playlist~", "preset_clipstate", 1, "filekind", "audiofile", 7, "obj-4", "playlist~", "preset_clipstate", 1, "absolutepath", "cherokee.aif", 7, "obj-4", "playlist~", "preset_clipstate", 1, "filename", "cherokee.aif", 7, "obj-4", "playlist~", "preset_clipstate", 1, "loop", 1, 8, "obj-4", "playlist~", "preset_clipstate", 1, "selection", 0.0, 1.0, 7, "obj-4", "playlist~", "preset_clipstate", 1, "id", "u389001737", 7, "obj-4", "playlist~", "preset_content", 1, "loop", 1, 4, "obj-4", "playlist~", "preset_execute", 5, "obj-6", "slider", "float", 0.0, 5, "obj-8", "slider", "float", 0.0, 5, "obj-10", "slider", "float", 0.5, 5, "obj-12", "slider", "float", 0.5, 5, "obj-14", "slider", "float", 1.0, 5, "obj-16", "flonum", "float", 0.0, 5, "obj-18", "flonum", "float", 0.0, 5, "obj-20", "flonum", "float", 0.5, 5, "obj-22", "flonum", "float", 1.0, 5, "obj-24", "flonum", "float", 0.5 ]
						}
, 						{
							"number" : 3,
							"data" : [ 5, "obj-4", "playlist~", "preset_count", 1, 7, "obj-4", "playlist~", "preset_clipstate", 1, "filekind", "audiofile", 7, "obj-4", "playlist~", "preset_clipstate", 1, "absolutepath", "cherokee.aif", 7, "obj-4", "playlist~", "preset_clipstate", 1, "filename", "cherokee.aif", 7, "obj-4", "playlist~", "preset_clipstate", 1, "loop", 1, 8, "obj-4", "playlist~", "preset_clipstate", 1, "selection", 0.0, 1.0, 7, "obj-4", "playlist~", "preset_clipstate", 1, "id", "u389001737", 7, "obj-4", "playlist~", "preset_content", 1, "loop", 1, 4, "obj-4", "playlist~", "preset_execute", 5, "obj-6", "slider", "float", 0.610794067382812, 5, "obj-8", "slider", "float", 0.415384620428085, 5, "obj-10", "slider", "float", 0.738461554050446, 5, "obj-12", "slider", "float", 0.80448716878891, 5, "obj-14", "slider", "float", 0.75781637430191, 5, "obj-16", "flonum", "float", 0.610794067382812, 5, "obj-18", "flonum", "float", 0.415384620428085, 5, "obj-20", "flonum", "float", 0.80448716878891, 5, "obj-22", "flonum", "float", 0.75781637430191, 5, "obj-24", "flonum", "float", 0.738461554050446 ]
						}
, 						{
							"number" : 4,
							"data" : [ 5, "obj-4", "playlist~", "preset_count", 1, 7, "obj-4", "playlist~", "preset_clipstate", 1, "filekind", "audiofile", 7, "obj-4", "playlist~", "preset_clipstate", 1, "absolutepath", "cherokee.aif", 7, "obj-4", "playlist~", "preset_clipstate", 1, "filename", "cherokee.aif", 7, "obj-4", "playlist~", "preset_clipstate", 1, "loop", 1, 8, "obj-4", "playlist~", "preset_clipstate", 1, "selection", 0.0, 1.0, 7, "obj-4", "playlist~", "preset_clipstate", 1, "id", "u389001737", 7, "obj-4", "playlist~", "preset_content", 1, "loop", 1, 4, "obj-4", "playlist~", "preset_execute", 5, "obj-6", "slider", "float", 0.610794067382812, 5, "obj-8", "slider", "float", 0.415384620428085, 5, "obj-10", "slider", "float", 0.100000001490116, 5, "obj-12", "slider", "float", 0.933333337306976, 5, "obj-14", "slider", "float", 0.75781637430191, 5, "obj-16", "flonum", "float", 0.610794067382812, 5, "obj-18", "flonum", "float", 0.415384620428085, 5, "obj-20", "flonum", "float", 0.933333337306976, 5, "obj-22", "flonum", "float", 0.75781637430191, 5, "obj-24", "flonum", "float", 0.100000001490116 ]
						}
, 						{
							"number" : 5,
							"data" : [ 5, "obj-4", "playlist~", "preset_count", 1, 7, "obj-4", "playlist~", "preset_clipstate", 1, "filekind", "audiofile", 7, "obj-4", "playlist~", "preset_clipstate", 1, "absolutepath", "cherokee.aif", 7, "obj-4", "playlist~", "preset_clipstate", 1, "filename", "cherokee.aif", 7, "obj-4", "playlist~", "preset_clipstate", 1, "loop", 1, 8, "obj-4", "playlist~", "preset_clipstate", 1, "selection", 0.0, 1.0, 7, "obj-4", "playlist~", "preset_clipstate", 1, "id", "u389001737", 7, "obj-4", "playlist~", "preset_content", 1, "loop", 1, 4, "obj-4", "playlist~", "preset_execute", 5, "obj-6", "slider", "float", 0.803722083568573, 5, "obj-8", "slider", "float", 0.628846168518066, 5, "obj-10", "slider", "float", 0.653846144676208, 5, "obj-12", "slider", "float", 0.933333337306976, 5, "obj-14", "slider", "float", 0.75781637430191, 5, "obj-16", "flonum", "float", 0.803722083568573, 5, "obj-18", "flonum", "float", 0.628846168518066, 5, "obj-20", "flonum", "float", 0.933333337306976, 5, "obj-22", "flonum", "float", 0.75781637430191, 5, "obj-24", "flonum", "float", 0.653846144676208 ]
						}
, 						{
							"number" : 6,
							"data" : [ 5, "obj-4", "playlist~", "preset_count", 1, 7, "obj-4", "playlist~", "preset_clipstate", 1, "filekind", "audiofile", 7, "obj-4", "playlist~", "preset_clipstate", 1, "absolutepath", "cherokee.aif", 7, "obj-4", "playlist~", "preset_clipstate", 1, "filename", "cherokee.aif", 7, "obj-4", "playlist~", "preset_clipstate", 1, "loop", 1, 8, "obj-4", "playlist~", "preset_clipstate", 1, "selection", 0.0, 1.0, 7, "obj-4", "playlist~", "preset_clipstate", 1, "id", "u389001737", 7, "obj-4", "playlist~", "preset_content", 1, "loop", 1, 4, "obj-4", "playlist~", "preset_execute", 5, "obj-6", "slider", "float", 0.803722083568573, 5, "obj-8", "slider", "float", 0.0, 5, "obj-10", "slider", "float", 0.653846144676208, 5, "obj-12", "slider", "float", 0.933333337306976, 5, "obj-14", "slider", "float", 0.671712160110474, 5, "obj-16", "flonum", "float", 0.803722083568573, 5, "obj-18", "flonum", "float", 0.0, 5, "obj-20", "flonum", "float", 0.933333337306976, 5, "obj-22", "flonum", "float", 0.671712160110474, 5, "obj-24", "flonum", "float", 0.653846144676208 ]
						}
 ]
				}

			}
, 			{
				"box" : 				{
					"id" : "obj-5",
					"maxclass" : "newobj",
					"numinlets" : 1,
					"numoutlets" : 1,
					"outlettype" : [ "" ],
					"patching_rect" : [ 983.0, 197.0, 164.0, 22.0 ],
					"saved_object_attributes" : 					{
						"client_rect" : [ 4, 44, 358, 172 ],
						"parameter_enable" : 0,
						"parameter_mappable" : 0,
						"storage_rect" : [ 583, 69, 1034, 197 ]
					}
,
					"text" : "pattrstorage CNET.vibDelay~",
					"varname" : "CNET.vibDelay~"
				}

			}
, 			{
				"box" : 				{
					"id" : "obj-3",
					"maxclass" : "newobj",
					"numinlets" : 1,
					"numoutlets" : 4,
					"outlettype" : [ "", "", "", "" ],
					"patching_rect" : [ 983.0, 167.0, 56.0, 22.0 ],
					"restore" : 					{
						"vDelDryGain" : [ 1.0 ],
						"vDelOutGain" : [ 1.0 ],
						"vDelTimw" : [ 0.4 ],
						"vDelVSpeed" : [ 0.5 ],
						"vDelvDepth" : [ 0.5 ]
					}
,
					"text" : "autopattr",
					"varname" : "u168001753"
				}

			}
, 			{
				"box" : 				{
					"bubble" : 1,
					"id" : "obj-51",
					"linecount" : 5,
					"maxclass" : "comment",
					"numinlets" : 1,
					"numoutlets" : 0,
					"patching_rect" : [ 732.5, 483.0, 153.0, 79.0 ],
					"text" : "7. set wet effect output. a value of 0 will mute the effect. Accepts values between 0 and 1. Defaults to 1.0"
				}

			}
, 			{
				"box" : 				{
					"bubble" : 1,
					"id" : "obj-49",
					"linecount" : 5,
					"maxclass" : "comment",
					"numinlets" : 1,
					"numoutlets" : 0,
					"patching_rect" : [ 485.0, 483.0, 150.0, 79.0 ],
					"text" : "6. set vibrato depth. accepts values between 0 and 1. Maximum depth is 50 Hz. Defaults to 0.5"
				}

			}
, 			{
				"box" : 				{
					"bubble" : 1,
					"id" : "obj-45",
					"linecount" : 5,
					"maxclass" : "comment",
					"numinlets" : 1,
					"numoutlets" : 0,
					"patching_rect" : [ 718.0, 270.5, 150.0, 79.0 ],
					"text" : "5. set vibrato speed. accpets values between 0 and 1. Maximum speed is 5 Hz"
				}

			}
, 			{
				"box" : 				{
					"bubble" : 1,
					"id" : "obj-43",
					"linecount" : 6,
					"maxclass" : "comment",
					"numinlets" : 1,
					"numoutlets" : 0,
					"patching_rect" : [ 487.0, 270.5, 151.0, 93.0 ],
					"text" : "4. set delay time. accetps values between 0 and 1.\nmaximum delay time is 5 seconds. defaults to 0.4"
				}

			}
, 			{
				"box" : 				{
					"bubble" : 1,
					"id" : "obj-41",
					"linecount" : 5,
					"maxclass" : "comment",
					"numinlets" : 1,
					"numoutlets" : 0,
					"patching_rect" : [ 256.0, 266.0, 150.0, 79.0 ],
					"text" : "3. set dry output gain. accepts ranges of 0-1. defaults to 1.0. A value of 0 will mute the original signal."
				}

			}
, 			{
				"box" : 				{
					"bubble" : 1,
					"bubbleside" : 2,
					"id" : "obj-39",
					"maxclass" : "comment",
					"numinlets" : 1,
					"numoutlets" : 0,
					"patching_rect" : [ 31.0, 261.0, 150.0, 39.0 ],
					"text" : "2. begin playback"
				}

			}
, 			{
				"box" : 				{
					"bubble" : 1,
					"id" : "obj-37",
					"maxclass" : "comment",
					"numinlets" : 1,
					"numoutlets" : 0,
					"patching_rect" : [ 97.0, 520.0, 150.0, 24.0 ],
					"text" : "1. start DSP"
				}

			}
, 			{
				"box" : 				{
					"id" : "obj-35",
					"linecount" : 4,
					"maxclass" : "comment",
					"numinlets" : 1,
					"numoutlets" : 0,
					"patching_rect" : [ 586.0, 14.0, 218.0, 62.0 ],
					"text" : "Patch by Matthew A. Bardin [05/2023]\n\nFor more information on the Cyberinet, visit matthewbardin.com/cyberinet"
				}

			}
, 			{
				"box" : 				{
					"id" : "obj-33",
					"linecount" : 9,
					"maxclass" : "comment",
					"numinlets" : 1,
					"numoutlets" : 0,
					"patching_rect" : [ 5.0, 45.0, 799.0, 131.0 ],
					"text" : "Version 1.3\n\nCNET.vibDelay~ is a audio effect designed to interface with the Cyberinet. It combines a single delay line with a vibrato effect, resulting in the delayed signal being able to take on a unique character.\n\nThe first outlet passes the original signal through, and the second one outputs the altered signal.\nInlet 1 receives the signal, inlet 2 controls the dry output volume. outlets 3 controsl the delay time. Outlets 4 and 5 control the vibrato parameters, and outlet 6 controls the wet signal output level.\nAll control inputs accept floating point values between 0 and 1. default values are given below."
				}

			}
, 			{
				"box" : 				{
					"fontsize" : 20.0,
					"id" : "obj-30",
					"maxclass" : "comment",
					"numinlets" : 1,
					"numoutlets" : 0,
					"patching_rect" : [ 5.0, 7.0, 243.0, 29.0 ],
					"text" : "CNET.vibDelay~"
				}

			}
, 			{
				"box" : 				{
					"id" : "obj-29",
					"maxclass" : "message",
					"numinlets" : 2,
					"numoutlets" : 1,
					"outlettype" : [ "" ],
					"patching_rect" : [ 894.0, 67.0, 29.5, 22.0 ],
					"text" : "0.5"
				}

			}
, 			{
				"box" : 				{
					"id" : "obj-27",
					"maxclass" : "message",
					"numinlets" : 2,
					"numoutlets" : 1,
					"outlettype" : [ "" ],
					"patching_rect" : [ 848.0, 67.0, 29.5, 22.0 ],
					"text" : "0.4"
				}

			}
, 			{
				"box" : 				{
					"id" : "obj-25",
					"maxclass" : "message",
					"numinlets" : 2,
					"numoutlets" : 1,
					"outlettype" : [ "" ],
					"patching_rect" : [ 934.0, 67.0, 29.5, 22.0 ],
					"text" : "1."
				}

			}
, 			{
				"box" : 				{
					"id" : "obj-26",
					"maxclass" : "newobj",
					"numinlets" : 1,
					"numoutlets" : 1,
					"outlettype" : [ "bang" ],
					"patching_rect" : [ 848.0, 14.0, 58.0, 22.0 ],
					"text" : "loadbang"
				}

			}
, 			{
				"box" : 				{
					"format" : 6,
					"id" : "obj-24",
					"maxclass" : "flonum",
					"numinlets" : 1,
					"numoutlets" : 2,
					"outlettype" : [ "", "bang" ],
					"parameter_enable" : 0,
					"patching_rect" : [ 451.0, 603.0, 50.0, 22.0 ]
				}

			}
, 			{
				"box" : 				{
					"format" : 6,
					"id" : "obj-22",
					"maxclass" : "flonum",
					"numinlets" : 1,
					"numoutlets" : 2,
					"outlettype" : [ "", "bang" ],
					"parameter_enable" : 0,
					"patching_rect" : [ 680.0, 603.0, 50.0, 22.0 ]
				}

			}
, 			{
				"box" : 				{
					"format" : 6,
					"id" : "obj-20",
					"maxclass" : "flonum",
					"numinlets" : 1,
					"numoutlets" : 2,
					"outlettype" : [ "", "bang" ],
					"parameter_enable" : 0,
					"patching_rect" : [ 678.0, 390.0, 50.0, 22.0 ]
				}

			}
, 			{
				"box" : 				{
					"format" : 6,
					"id" : "obj-18",
					"maxclass" : "flonum",
					"numinlets" : 1,
					"numoutlets" : 2,
					"outlettype" : [ "", "bang" ],
					"parameter_enable" : 0,
					"patching_rect" : [ 451.0, 390.0, 50.0, 22.0 ]
				}

			}
, 			{
				"box" : 				{
					"format" : 6,
					"id" : "obj-16",
					"maxclass" : "flonum",
					"numinlets" : 1,
					"numoutlets" : 2,
					"outlettype" : [ "", "bang" ],
					"parameter_enable" : 0,
					"patching_rect" : [ 223.0, 390.0, 50.0, 22.0 ]
				}

			}
, 			{
				"box" : 				{
					"floatoutput" : 1,
					"id" : "obj-14",
					"maxclass" : "slider",
					"numinlets" : 1,
					"numoutlets" : 1,
					"outlettype" : [ "" ],
					"parameter_enable" : 0,
					"patching_rect" : [ 680.0, 444.0, 20.0, 140.0 ],
					"size" : 1.0,
					"varname" : "vDelOutGain"
				}

			}
, 			{
				"box" : 				{
					"floatoutput" : 1,
					"id" : "obj-12",
					"knobshape" : 2,
					"maxclass" : "slider",
					"numinlets" : 1,
					"numoutlets" : 1,
					"outlettype" : [ "" ],
					"parameter_enable" : 0,
					"patching_rect" : [ 678.0, 240.0, 20.0, 140.0 ],
					"size" : 1.0,
					"varname" : "vDelVSpeed"
				}

			}
, 			{
				"box" : 				{
					"floatoutput" : 1,
					"id" : "obj-10",
					"knobshape" : 5,
					"maxclass" : "slider",
					"numinlets" : 1,
					"numoutlets" : 1,
					"outlettype" : [ "" ],
					"parameter_enable" : 0,
					"patching_rect" : [ 451.0, 444.0, 20.0, 140.0 ],
					"size" : 1.0,
					"varname" : "vDelvDepth"
				}

			}
, 			{
				"box" : 				{
					"floatoutput" : 1,
					"id" : "obj-8",
					"knobshape" : 3,
					"maxclass" : "slider",
					"numinlets" : 1,
					"numoutlets" : 1,
					"outlettype" : [ "" ],
					"parameter_enable" : 0,
					"patching_rect" : [ 451.0, 240.0, 20.0, 140.0 ],
					"size" : 1.0,
					"varname" : "vDelTimw"
				}

			}
, 			{
				"box" : 				{
					"floatoutput" : 1,
					"id" : "obj-6",
					"maxclass" : "slider",
					"numinlets" : 1,
					"numoutlets" : 1,
					"outlettype" : [ "" ],
					"parameter_enable" : 0,
					"patching_rect" : [ 223.0, 240.0, 20.0, 140.0 ],
					"size" : 1.0,
					"varname" : "vDelDryGain"
				}

			}
, 			{
				"box" : 				{
					"basictuning" : 440,
					"data" : 					{
						"clips" : [ 							{
								"absolutepath" : "cherokee.aif",
								"filename" : "cherokee.aif",
								"filekind" : "audiofile",
								"id" : "u389001737",
								"selection" : [ 0.0, 1.0 ],
								"loop" : 1,
								"content_state" : 								{
									"loop" : 1
								}

							}
 ]
					}
,
					"followglobaltempo" : 0,
					"formantcorrection" : 0,
					"id" : "obj-4",
					"maxclass" : "playlist~",
					"mode" : "basic",
					"numinlets" : 1,
					"numoutlets" : 5,
					"originallength" : [ 0.0, "ticks" ],
					"originaltempo" : 120.0,
					"outlettype" : [ "signal", "signal", "signal", "", "dictionary" ],
					"parameter_enable" : 0,
					"patching_rect" : [ 31.0, 308.0, 150.0, 30.0 ],
					"pitchcorrection" : 0,
					"quality" : "basic",
					"timestretch" : [ 0 ]
				}

			}
, 			{
				"box" : 				{
					"id" : "obj-2",
					"maxclass" : "ezdac~",
					"numinlets" : 2,
					"numoutlets" : 0,
					"patching_rect" : [ 31.0, 506.0, 45.0, 45.0 ]
				}

			}
, 			{
				"box" : 				{
					"id" : "obj-1",
					"maxclass" : "newobj",
					"numinlets" : 6,
					"numoutlets" : 2,
					"outlettype" : [ "signal", "signal" ],
					"patching_rect" : [ 31.0, 434.0, 96.0, 22.0 ],
					"text" : "CNET.vibDelay~"
				}

			}
 ],
		"lines" : [ 			{
				"patchline" : 				{
					"destination" : [ "obj-2", 1 ],
					"source" : [ "obj-1", 1 ]
				}

			}
, 			{
				"patchline" : 				{
					"destination" : [ "obj-2", 0 ],
					"source" : [ "obj-1", 0 ]
				}

			}
, 			{
				"patchline" : 				{
					"destination" : [ "obj-24", 0 ],
					"source" : [ "obj-10", 0 ]
				}

			}
, 			{
				"patchline" : 				{
					"destination" : [ "obj-20", 0 ],
					"source" : [ "obj-12", 0 ]
				}

			}
, 			{
				"patchline" : 				{
					"destination" : [ "obj-22", 0 ],
					"source" : [ "obj-14", 0 ]
				}

			}
, 			{
				"patchline" : 				{
					"destination" : [ "obj-1", 1 ],
					"source" : [ "obj-16", 0 ]
				}

			}
, 			{
				"patchline" : 				{
					"destination" : [ "obj-1", 2 ],
					"source" : [ "obj-18", 0 ]
				}

			}
, 			{
				"patchline" : 				{
					"destination" : [ "obj-1", 3 ],
					"source" : [ "obj-20", 0 ]
				}

			}
, 			{
				"patchline" : 				{
					"destination" : [ "obj-1", 5 ],
					"source" : [ "obj-22", 0 ]
				}

			}
, 			{
				"patchline" : 				{
					"destination" : [ "obj-1", 4 ],
					"source" : [ "obj-24", 0 ]
				}

			}
, 			{
				"patchline" : 				{
					"destination" : [ "obj-14", 0 ],
					"order" : 0,
					"source" : [ "obj-25", 0 ]
				}

			}
, 			{
				"patchline" : 				{
					"destination" : [ "obj-6", 0 ],
					"order" : 1,
					"source" : [ "obj-25", 0 ]
				}

			}
, 			{
				"patchline" : 				{
					"destination" : [ "obj-25", 0 ],
					"order" : 0,
					"source" : [ "obj-26", 0 ]
				}

			}
, 			{
				"patchline" : 				{
					"destination" : [ "obj-27", 0 ],
					"order" : 2,
					"source" : [ "obj-26", 0 ]
				}

			}
, 			{
				"patchline" : 				{
					"destination" : [ "obj-29", 0 ],
					"order" : 1,
					"source" : [ "obj-26", 0 ]
				}

			}
, 			{
				"patchline" : 				{
					"destination" : [ "obj-8", 0 ],
					"source" : [ "obj-27", 0 ]
				}

			}
, 			{
				"patchline" : 				{
					"destination" : [ "obj-10", 0 ],
					"order" : 1,
					"source" : [ "obj-29", 0 ]
				}

			}
, 			{
				"patchline" : 				{
					"destination" : [ "obj-12", 0 ],
					"order" : 0,
					"source" : [ "obj-29", 0 ]
				}

			}
, 			{
				"patchline" : 				{
					"destination" : [ "obj-1", 0 ],
					"source" : [ "obj-4", 1 ]
				}

			}
, 			{
				"patchline" : 				{
					"destination" : [ "obj-1", 0 ],
					"source" : [ "obj-4", 0 ]
				}

			}
, 			{
				"patchline" : 				{
					"destination" : [ "obj-16", 0 ],
					"source" : [ "obj-6", 0 ]
				}

			}
, 			{
				"patchline" : 				{
					"destination" : [ "obj-18", 0 ],
					"source" : [ "obj-8", 0 ]
				}

			}
 ],
		"dependency_cache" : [ 			{
				"name" : "CNET.vibDelay~.maxpat",
				"bootpath" : "~/Documents/GitHub/Cyberinet/V1.3/Max Patches/CNET",
				"patcherrelativepath" : "..",
				"type" : "JSON",
				"implicit" : 1
			}
, 			{
				"name" : "cherokee.aif",
				"bootpath" : "C74:/media/msp",
				"type" : "AIFF",
				"implicit" : 1
			}
 ],
		"autosave" : 0,
		"bgcolor" : [ 0.0, 1.0, 0.443137254901961, 1.0 ]
	}

}
